<svg width="19" height="19" viewBox="0 0 19 19" fill="none" xmlns="http://www.w3.org/2000/svg">
<path d="M3.36953 13.1367C2.4855 11.6452 2.17628 9.88234 2.49991 8.17902C2.82355 6.47569 3.75779 4.94907 5.12724 3.88574C6.49669 2.82242 8.20718 2.29552 9.93758 2.40396C11.668 2.51241 13.2993 3.24874 14.5253 4.47472C15.7513 5.7007 16.4876 7.33202 16.596 9.06242C16.7045 10.7928 16.1776 12.5033 15.1143 13.8728C14.0509 15.2422 12.5243 16.1764 10.821 16.5001C9.11766 16.8237 7.35477 16.5145 5.86328 15.6305L3.39922 16.3281C3.29826 16.3577 3.19123 16.3595 3.08932 16.3334C2.98742 16.3073 2.89441 16.2543 2.82003 16.18C2.74565 16.1056 2.69266 16.0126 2.66659 15.9107C2.64052 15.8088 2.64235 15.7017 2.67187 15.6008L3.36953 13.1367Z" fill="#7A7FAA"/>
<path d="M9.5 10.2422C9.9099 10.2422 10.2422 9.9099 10.2422 9.5C10.2422 9.0901 9.9099 8.75781 9.5 8.75781C9.0901 8.75781 8.75781 9.0901 8.75781 9.5C8.75781 9.9099 9.0901 10.2422 9.5 10.2422Z" fill="white"/>
<path d="M13.0625 10.2422C13.4724 10.2422 13.8047 9.9099 13.8047 9.5C13.8047 9.0901 13.4724 8.75781 13.0625 8.75781C12.6526 8.75781 12.3203 9.0901 12.3203 9.5C12.3203 9.9099 12.6526 10.2422 13.0625 10.2422Z" fill="white"/>
<path d="M5.9375 10.2422C6.3474 10.2422 6.67969 9.9099 6.67969 9.5C6.67969 9.0901 6.3474 8.75781 5.9375 8.75781C5.5276 8.75781 5.19531 9.0901 5.19531 9.5C5.19531 9.9099 5.5276 10.2422 5.9375 10.2422Z" fill="white"/>
</svg>
