<svg width="19" height="19" viewBox="0 0 19 19" fill="none" xmlns="http://www.w3.org/2000/svg">
<path d="M3.36973 13.1373C2.4857 11.6458 2.17648 9.88295 2.50012 8.17962C2.82375 6.4763 3.75799 4.94967 5.12744 3.88635C6.49689 2.82302 8.20738 2.29613 9.93778 2.40457C11.6682 2.51301 13.2995 3.24934 14.5255 4.47532C15.7515 5.7013 16.4878 7.33262 16.5962 9.06303C16.7047 10.7934 16.1778 12.5039 15.1145 13.8734C14.0511 15.2428 12.5245 16.1771 10.8212 16.5007C9.11786 16.8243 7.35497 16.5151 5.86348 15.6311V15.6311L3.39942 16.3287C3.29846 16.3583 3.19143 16.3601 3.08952 16.334C2.98762 16.308 2.89461 16.255 2.82023 16.1806C2.74586 16.1062 2.69286 16.0132 2.66679 15.9113C2.64072 15.8094 2.64255 15.7023 2.67208 15.6014L3.36973 13.1373Z" fill="#7A7FAA"/>
<path d="M9.5 10.2422C9.9099 10.2422 10.2422 9.9099 10.2422 9.5C10.2422 9.0901 9.9099 8.75781 9.5 8.75781C9.0901 8.75781 8.75781 9.0901 8.75781 9.5C8.75781 9.9099 9.0901 10.2422 9.5 10.2422Z" fill="white"/>
<path d="M13.0625 10.2422C13.4724 10.2422 13.8047 9.9099 13.8047 9.5C13.8047 9.0901 13.4724 8.75781 13.0625 8.75781C12.6526 8.75781 12.3203 9.0901 12.3203 9.5C12.3203 9.9099 12.6526 10.2422 13.0625 10.2422Z" fill="white"/>
<path d="M5.9375 10.2422C6.3474 10.2422 6.67969 9.9099 6.67969 9.5C6.67969 9.0901 6.3474 8.75781 5.9375 8.75781C5.5276 8.75781 5.19531 9.0901 5.19531 9.5C5.19531 9.9099 5.5276 10.2422 5.9375 10.2422Z" fill="white"/>
</svg>
