<svg width="16" height="15" viewBox="0 0 16 15" fill="none" xmlns="http://www.w3.org/2000/svg">
<path fill-rule="evenodd" clip-rule="evenodd" d="M8.31434 2.39675C7.06979 2.31875 5.83957 2.69771 4.85463 3.46248C3.86968 4.22725 3.19776 5.32524 2.96499 6.55031C2.73222 7.77539 2.95462 9.0433 3.59044 10.116C3.66031 10.2339 3.67874 10.3753 3.6414 10.5072L3.10764 12.3924L4.99285 11.8586C5.13052 11.8196 5.27106 11.8423 5.38499 11.9102C6.4575 12.5455 7.72501 12.7677 8.94971 12.535C10.1748 12.3023 11.2728 11.6303 12.0375 10.6454C12.8023 9.66045 13.1813 8.43023 13.1033 7.18568C13.0253 5.94113 12.4957 4.76784 11.6139 3.88609C10.7322 3.00433 9.55889 2.47475 8.31434 2.39675ZM5.06393 12.8778C6.30454 13.5546 7.74361 13.7821 9.13637 13.5175C10.6008 13.2392 11.9132 12.436 12.8274 11.2587C13.7416 10.0813 14.1945 8.6108 14.1013 7.12313C14.0081 5.63546 13.375 4.23298 12.321 3.17898C11.267 2.12498 9.86456 1.49194 8.37689 1.39871C6.88922 1.30548 5.41868 1.75846 4.24133 2.67263C3.06399 3.58679 2.2608 4.89926 1.98256 6.36365C1.71794 7.75641 1.94547 9.19548 2.62222 10.4361L2.12893 12.1784C2.08112 12.3434 2.07836 12.5183 2.12096 12.6848C2.16377 12.8522 2.2508 13.0049 2.37295 13.1271C2.49509 13.2492 2.64784 13.3363 2.81519 13.3791C2.98172 13.4217 3.1566 13.4189 3.32168 13.3711L5.06393 12.8778ZM3.08943 12.4566L3.08959 12.4561Z" fill="#006CEE"/>
<path d="M8 8.08594C8.3236 8.08594 8.58594 7.8236 8.58594 7.5C8.58594 7.1764 8.3236 6.91406 8 6.91406C7.6764 6.91406 7.41406 7.1764 7.41406 7.5C7.41406 7.8236 7.6764 8.08594 8 8.08594Z" fill="#006CEE"/>
<path d="M10.8125 8.08594C11.1361 8.08594 11.3984 7.8236 11.3984 7.5C11.3984 7.1764 11.1361 6.91406 10.8125 6.91406C10.4889 6.91406 10.2266 7.1764 10.2266 7.5C10.2266 7.8236 10.4889 8.08594 10.8125 8.08594Z" fill="#006CEE"/>
<path d="M5.1875 8.08594C5.5111 8.08594 5.77344 7.8236 5.77344 7.5C5.77344 7.1764 5.5111 6.91406 5.1875 6.91406C4.8639 6.91406 4.60156 7.1764 4.60156 7.5C4.60156 7.8236 4.8639 8.08594 5.1875 8.08594Z" fill="#006CEE"/>
</svg>
