<svg width="15" height="15" viewBox="0 0 15 15" fill="none" xmlns="http://www.w3.org/2000/svg">
<path d="M10.9361 0C10.2326 0.0124537 9.54446 0.235959 8.94114 0.647945C8.33783 1.05993 7.84071 1.64581 7.5 2.34641C7.15929 1.64581 6.66217 1.05993 6.05885 0.647945C5.45554 0.235959 4.76738 0.0124537 4.06389 0C2.94243 0.0554541 1.88583 0.613803 1.12494 1.55306C0.364041 2.49233 -0.0393025 3.73615 0.00302447 5.01279C0.00302447 8.24587 2.99307 11.7769 5.50081 14.1709C6.06072 14.7064 6.76864 15 7.5 15C8.23136 15 8.93928 14.7064 9.49919 14.1709C12.0069 11.7769 14.997 8.24587 14.997 5.01279C15.0393 3.73615 14.636 2.49233 13.8751 1.55306C13.1142 0.613803 12.0576 0.0554541 10.9361 0Z" fill="#7A7FAA"/>
</svg>
