<svg width="16" height="16" viewBox="0 0 16 16" fill="none" xmlns="http://www.w3.org/2000/svg">
<path d="M5.93164 13.1574H3.3125C3.18818 13.1574 3.06895 13.108 2.98105 13.0201C2.89314 12.9322 2.84375 12.813 2.84375 12.6887V10.0695C2.84354 10.0087 2.85533 9.94835 2.87846 9.89204C2.90158 9.83574 2.93558 9.78455 2.97852 9.7414L10.0098 2.71015C10.0534 2.66586 10.1054 2.63069 10.1627 2.60668C10.2201 2.58268 10.2816 2.57031 10.3438 2.57031C10.4059 2.57031 10.4675 2.58268 10.5248 2.60668C10.5821 2.63069 10.6341 2.66586 10.6777 2.71015L13.291 5.32343C13.3353 5.36705 13.3705 5.41904 13.3945 5.47638C13.4185 5.53372 13.4309 5.59526 13.4309 5.65742C13.4309 5.71958 13.4185 5.78112 13.3945 5.83846C13.3705 5.8958 13.3353 5.94779 13.291 5.9914L6.25977 13.0227C6.21662 13.0656 6.16543 13.0996 6.10913 13.1227C6.05282 13.1458 5.99251 13.1576 5.93164 13.1574V13.1574Z" stroke="#7A7FAA" stroke-linecap="round" stroke-linejoin="round"/>
<path d="M8.46875 4.25L11.75 7.53125" stroke="#7A7FAA" stroke-linecap="round" stroke-linejoin="round"/>
<path d="M10.1094 5.89062L4.48438 11.5156" stroke="#7A7FAA" stroke-linecap="round" stroke-linejoin="round"/>
<path d="M6.0957 13.127L2.87305 9.9043" stroke="#7A7FAA" stroke-linecap="round" stroke-linejoin="round"/>
</svg>
