<svg width="15" height="15" viewBox="0 0 15 15" fill="none" xmlns="http://www.w3.org/2000/svg">
<g clip-path="url(#clip0_577_29113)">
<path d="M11.6181 9.44366e-05H3.38187C2.49296 -0.00656886 1.6377 0.339621 1.00371 0.962721C0.36971 1.58582 0.00874687 2.43495 0 3.32384L0 4.48884C0 4.73749 0.098772 4.97594 0.274587 5.15176C0.450403 5.32757 0.68886 5.42634 0.9375 5.42634C1.18614 5.42634 1.4246 5.32757 1.60041 5.15176C1.77623 4.97594 1.875 4.73749 1.875 4.48884V3.32384C1.88337 2.93212 2.04667 2.55969 2.32911 2.28814C2.61156 2.01659 2.99013 1.86806 3.38187 1.87509H11.6181C12.0099 1.86806 12.3884 2.01659 12.6709 2.28814C12.9533 2.55969 13.1166 2.93212 13.125 3.32384V11.6763C13.1166 12.0681 12.9533 12.4405 12.6709 12.7121C12.3884 12.9836 12.0099 13.1321 11.6181 13.1251H3.38187C2.99013 13.1321 2.61156 12.9836 2.32911 12.7121C2.04667 12.4405 1.88337 12.0681 1.875 11.6763V10.5113C1.875 10.2627 1.77623 10.0242 1.60041 9.84843C1.4246 9.67262 1.18614 9.57384 0.9375 9.57384C0.68886 9.57384 0.450403 9.67262 0.274587 9.84843C0.098772 10.0242 0 10.2627 0 10.5113L0 11.6763C0.00874687 12.5652 0.36971 13.4144 1.00371 14.0375C1.6377 14.6606 2.49296 15.0068 3.38187 15.0001H11.6181C12.507 15.0068 13.3623 14.6606 13.9963 14.0375C14.6303 13.4144 14.9913 12.5652 15 11.6763V3.32384C14.9913 2.43495 14.6303 1.58582 13.9963 0.962721C13.3623 0.339621 12.507 -0.00656886 11.6181 9.44366e-05Z" fill="#7A7FAA"/>
<path d="M2.1875 7.50008C2.1875 7.74872 2.28627 7.98718 2.46209 8.16299C2.6379 8.33881 2.87636 8.43758 3.125 8.43758L9.35938 8.4207L7.19313 10.587C7.01725 10.7627 6.91842 11.0012 6.91836 11.2499C6.9183 11.4985 7.01702 11.737 7.19281 11.9129C7.3686 12.0888 7.60706 12.1876 7.85572 12.1877C8.10438 12.1877 8.34288 12.089 8.51875 11.9132L11.385 9.04695C11.5882 8.84382 11.7493 8.60266 11.8592 8.33725C11.9692 8.07184 12.0258 7.78736 12.0258 7.50008C12.0258 7.21279 11.9692 6.92832 11.8592 6.66291C11.7493 6.39749 11.5882 6.15634 11.385 5.9532L8.52125 3.08695C8.43417 2.99991 8.33079 2.93088 8.21703 2.88378C8.10327 2.83669 7.98134 2.81247 7.85822 2.8125C7.73509 2.81253 7.61318 2.83681 7.49944 2.88395C7.3857 2.9311 7.28235 3.00018 7.19531 3.08727C7.01952 3.26314 6.9208 3.50164 6.92086 3.7503C6.92089 3.87342 6.94517 3.99534 6.99231 4.10908C7.03946 4.22282 7.10854 4.32616 7.19563 4.4132L9.32875 6.5457L3.125 6.56258C2.87636 6.56258 2.6379 6.66135 2.46209 6.83717C2.28627 7.01298 2.1875 7.25144 2.1875 7.50008Z" fill="#7A7FAA"/>
</g>
<defs>
<clipPath id="clip0_577_29113">
<rect width="15" height="15" fill="white"/>
</clipPath>
</defs>
</svg>
