<svg width="20" height="21" viewBox="0 0 20 21" fill="none" xmlns="http://www.w3.org/2000/svg">
<g clip-path="url(#clip0_504_24171)">
<path d="M19.0858 5.9501C18.5225 5.66844 17.8583 5.7276 17.355 6.10677C17.3225 6.13094 17.2917 6.15844 17.2633 6.18677L15.7992 7.66427C15.6233 5.52677 13.8483 3.83594 11.6667 3.83594H4.16667C1.86917 3.8351 0 5.70427 0 8.00177V13.0018C0 15.2993 1.86917 17.1684 4.16667 17.1684H11.6667C13.8575 17.1684 15.64 15.4626 15.8017 13.3126L17.265 14.7743C17.2933 14.8018 17.3225 14.8268 17.3542 14.8509C17.6475 15.0709 17.9942 15.1826 18.3442 15.1826C18.5967 15.1826 18.8492 15.1251 19.0858 15.0068C19.65 14.7251 20 14.1576 20 13.5284V7.4301C20 6.79927 19.65 6.23177 19.0858 5.9501ZM11.6667 15.5018H4.16667C2.78833 15.5018 1.66667 14.3801 1.66667 13.0018V8.00177C1.66667 6.62344 2.78833 5.50177 4.16667 5.50177H11.6667C13.045 5.50177 14.1667 6.62344 14.1667 8.00177V13.0018C14.1667 14.3801 13.045 15.5018 11.6667 15.5018ZM15.8333 10.9876V9.99677L18.3333 7.47344L18.3542 13.5051L15.8333 10.9868V10.9876Z" fill="#006CEE"/>
</g>
<defs>
<clipPath id="clip0_504_24171">
<rect width="20" height="20" fill="white" transform="translate(0 0.5)"/>
</clipPath>
</defs>
</svg>
