<?xml version="1.0" encoding="utf-8"?><svg viewBox="0 0 25 24" xmlns="http://www.w3.org/2000/svg" xmlns:xlink="http://www.w3.org/1999/xlink"><style>:root>svg{display:none}:root>svg:target{display:block}</style><svg viewBox="0 0 19 19" id="ChatCircleDots" xmlns="http://www.w3.org/2000/svg"><path d="M3.37 13.137a7.118 7.118 0 112.493 2.493l-2.464.698a.585.585 0 01-.727-.727l.698-2.464z"/><path d="M9.5 10.242a.742.742 0 100-1.484.742.742 0 000 1.484zm3.563 0a.742.742 0 100-1.484.742.742 0 000 1.484zm-7.125 0a.742.742 0 100-1.484.742.742 0 000 1.484z"/></svg><svg viewBox="0 0 20 20" id="ChatCircleDots-2" xmlns="http://www.w3.org/2000/svg"><path d="M0 0h20v20H0z"/><path d="M3.547 13.828a7.492 7.492 0 112.625 2.625l-2.594.734a.617.617 0 01-.765-.765l.734-2.594z"/><path d="M10 10.781a.781.781 0 100-1.562.781.781 0 000 1.562zm3.75 0a.781.781 0 100-1.562.781.781 0 000 1.562zm-7.5 0a.781.781 0 100-1.562.781.781 0 000 1.562z"/></svg><svg viewBox="0 0 14 14" id="add" xmlns="http://www.w3.org/2000/svg"><g clip-path="url(#aca)"><path d="M7 0a7 7 0 107 7 7.007 7.007 0 00-7-7zm2.333 7.583h-1.75v1.75a.583.583 0 11-1.166 0v-1.75h-1.75a.583.583 0 110-1.166h1.75v-1.75a.583.583 0 111.166 0v1.75h1.75a.583.583 0 010 1.166z"/></g><defs><clipPath id="aca"><path d="M0 0h14v14H0z"/></clipPath></defs></svg><svg viewBox="0 0 12 12" id="apps" xmlns="http://www.w3.org/2000/svg"><g clip-path="url(#ada)"><path d="M2 0h1.5a2 2 0 012 2v1.5a2 2 0 01-2 2H2a2 2 0 01-2-2V2a2 2 0 012-2zm6.5 0H10a2 2 0 012 2v1.5a2 2 0 01-2 2H8.5a2 2 0 01-2-2V2a2 2 0 012-2zM2 6.5h1.5a2 2 0 012 2V10a2 2 0 01-2 2H2a2 2 0 01-2-2V8.5a2 2 0 012-2zm6.5 0H10a2 2 0 012 2V10a2 2 0 01-2 2H8.5a2 2 0 01-2-2V8.5a2 2 0 012-2z"/></g><defs><clipPath id="ada"><path d="M0 0h12v12H0z"/></clipPath></defs></svg><svg viewBox="0 0 20 20" id="arrow-left" xmlns="http://www.w3.org/2000/svg"><path d="M13 6.175L9.465 10 13 13.825 11.906 15l-4.62-5 4.62-5L13 6.175z"/></svg><svg viewBox="0 0 20 20" id="arrow-right" xmlns="http://www.w3.org/2000/svg"><path d="M7.143 13.68l3.534-3.825L7.143 6.03l1.093-1.175 4.62 5-4.62 5-1.093-1.175z"/></svg><svg viewBox="0 0 10 5" id="arrow-small" xmlns="http://www.w3.org/2000/svg"><path d="M1.175 0L5 3.093 8.825 0 10 .957 5 5 0 .957 1.175 0z"/></svg><svg viewBox="0 0 15 16" id="bank" xmlns="http://www.w3.org/2000/svg"><g clip-path="url(#aha)"><path d="M0 14.251h15v1.25H0v-1.25zm15-8.807v1.307h-1.875v5h1.25v1.25H.625v-1.25h1.25v-5H0V5.444a1.875 1.875 0 01.977-1.646L6.602.73a1.87 1.87 0 011.796 0l5.625 3.068A1.875 1.875 0 0115 5.444zM3.125 11.751H5v-5H3.125v5zm3.125-5v5h2.5v-5h-2.5zm5.625 0H10v5h1.875v-5zm1.875-1.307a.625.625 0 00-.326-.549L7.8 1.827a.625.625 0 00-.598 0L1.576 4.895a.625.625 0 00-.326.55V5.5h12.5v-.057z"/></g><defs><clipPath id="aha"><path transform="translate(0 .5)" d="M0 0h15v15H0z"/></clipPath></defs></svg><svg viewBox="0 0 15 16" id="bolt" xmlns="http://www.w3.org/2000/svg"><g clip-path="url(#aia)"><path d="M7.025 15.5c-.204 0-.407-.046-.592-.133a1.363 1.363 0 01-.75-1.638l.975-3.229H4.36a1.874 1.874 0 01-1.797-2.418l1.89-6.25A1.864 1.864 0 016.25.5h2.308a1.625 1.625 0 011.521 2.194L9.027 5.5h1.598a1.875 1.875 0 011.552 2.928l-4 6.437a1.374 1.374 0 01-1.152.635zM6.25 1.75a.625.625 0 00-.598.444l-1.89 6.25a.625.625 0 00.598.806H7.5a.625.625 0 01.598.806l-1.216 4.027a.115.115 0 00.075.15.119.119 0 00.138-.008.116.116 0 00.03-.037l4-6.438a.625.625 0 00.05-.664.611.611 0 00-.55-.336h-2.5a.625.625 0 01-.585-.844l1.368-3.65a.375.375 0 00-.35-.506H6.25z"/></g><defs><clipPath id="aia"><path transform="translate(0 .5)" d="M0 0h15v15H0z"/></clipPath></defs></svg><svg viewBox="0 0 10 10" id="briefcase" xmlns="http://www.w3.org/2000/svg"><g clip-path="url(#aja)"><path d="M7.917 1.667h-.459A2.087 2.087 0 005.417 0h-.834a2.087 2.087 0 00-2.041 1.667h-.459A2.086 2.086 0 000 3.75V5h10V3.75a2.086 2.086 0 00-2.083-2.083zm-4.507 0A1.25 1.25 0 014.583.833h.834a1.25 1.25 0 011.173.834H3.41zm2.007 4.582a.417.417 0 01-.834 0v-.417H0v2.083A2.086 2.086 0 002.083 10h5.834A2.086 2.086 0 0010 7.915V5.832H5.417v.417z"/></g><defs><clipPath id="aja"><path d="M0 0h10v10H0z"/></clipPath></defs></svg><svg viewBox="0 0 15 16" id="budget" xmlns="http://www.w3.org/2000/svg"><g clip-path="url(#aka)"><path d="M10.313.5c-2.63 0-4.688 1.236-4.688 2.813v1.616a8.011 8.011 0 00-.938-.054C2.06 4.875 0 6.111 0 7.688v5C0 14.264 2.059 15.5 4.688 15.5c2.129 0 3.885-.81 4.474-1.957.374.055.76.082 1.15.082 2.63 0 4.688-1.236 4.688-2.813v-7.5C15 1.736 12.941.5 10.312.5zm3.437 7.813c0 .737-1.47 1.562-3.438 1.562-.32 0-.633-.022-.937-.064V8.57c.306.035.62.054.938.054 1.37 0 2.587-.336 3.437-.882v.57zM1.25 9.617c.85.546 2.066.882 3.438.882 1.37 0 2.587-.336 3.437-.882v.57c0 .737-1.47 1.562-3.438 1.562-1.967 0-3.437-.825-3.437-1.563v-.569zm12.5-3.806c0 .738-1.47 1.563-3.438 1.563-.334 0-.662-.024-.978-.07-.12-.554-.5-1.052-1.066-1.452a7.508 7.508 0 002.044.272c1.372 0 2.588-.336 3.438-.882v.57zM10.312 1.75c1.968 0 3.438.825 3.438 1.563 0 .737-1.47 1.562-3.438 1.562-1.967 0-3.437-.825-3.437-1.563 0-.737 1.47-1.562 3.438-1.562zM4.689 6.125c1.967 0 3.437.825 3.437 1.563 0 .737-1.47 1.562-3.438 1.562-1.967 0-3.437-.825-3.437-1.563 0-.737 1.47-1.562 3.438-1.562zm0 8.125c-1.968 0-3.438-.825-3.438-1.563v-.569c.85.546 2.066.882 3.438.882 1.37 0 2.587-.336 3.437-.882v.57c0 .737-1.47 1.562-3.438 1.562zm5.625-1.875a6.86 6.86 0 01-.938-.064v-1.24c.306.035.62.054.938.054 1.37 0 2.587-.336 3.437-.882v.57c0 .737-1.47 1.562-3.438 1.562z"/></g><defs><clipPath id="aka"><path transform="translate(0 .5)" d="M0 0h15v15H0z"/></clipPath></defs></svg><svg viewBox="0 0 15 16" id="calculator" xmlns="http://www.w3.org/2000/svg"><g clip-path="url(#ala)"><path d="M11.563 15.5H3.437A3.441 3.441 0 010 12.062V3.938A3.441 3.441 0 013.438.5h8.124A3.441 3.441 0 0115 3.938v8.124a3.442 3.442 0 01-3.438 3.438zM3.437 2.375a1.562 1.562 0 00-1.562 1.563v8.124a1.563 1.563 0 001.563 1.563h8.124a1.563 1.563 0 001.563-1.563V3.938a1.563 1.563 0 00-1.563-1.563H3.438zm8.438 2.5a1.25 1.25 0 00-1.25-1.25h-6.25a1.25 1.25 0 000 2.5h6.25a1.25 1.25 0 001.25-1.25zM4.062 7.688a.937.937 0 100 1.874.937.937 0 000-1.874zm3.125 0a.937.937 0 100 1.874.937.937 0 000-1.874zM4.063 10.5a.938.938 0 100 1.875.938.938 0 000-1.875zm3.125 0a.938.938 0 100 1.875.938.938 0 000-1.875zm4.688.938a.938.938 0 00-.938-.938h-.624a.938.938 0 000 1.875h.624a.938.938 0 00.938-.938zm0-2.813a.938.938 0 00-.938-.938h-.624a.938.938 0 000 1.875h.624a.937.937 0 00.938-.937z"/></g><defs><clipPath id="ala"><path transform="translate(0 .5)" d="M0 0h15v15H0z"/></clipPath></defs></svg><svg viewBox="0 0 14 14" id="calendar" xmlns="http://www.w3.org/2000/svg"><g clip-path="url(#ama)"><path d="M0 11.082a2.92 2.92 0 002.917 2.917h8.166A2.92 2.92 0 0014 11.082v-5.25H0v5.25zm9.917-2.625a.875.875 0 110 1.75.875.875 0 010-1.75zM7 8.457a.875.875 0 110 1.75.875.875 0 010-1.75zm-2.917 0a.875.875 0 110 1.75.875.875 0 010-1.75zm7-7.29H10.5V.583a.583.583 0 00-1.167 0v.584H4.667V.583a.583.583 0 00-1.167 0v.584h-.583A2.92 2.92 0 000 4.083v.584h14v-.584a2.92 2.92 0 00-2.917-2.916z"/></g><defs><clipPath id="ama"><path d="M0 0h14v14H0z"/></clipPath></defs></svg><svg viewBox="0 0 12 12" id="calendar-lines-pen" xmlns="http://www.w3.org/2000/svg"><path d="M12 4H0v-.5C0 2.122 1.121 1 2.5 1H3V.5a.5.5 0 111 0V1h4V.5a.5.5 0 111 0V1h.5C10.879 1 12 2.122 12 3.5V4zm-7 7.273c0-.447.093-.877.268-1.273H3a.5.5 0 110-1h2.96l1-1H3a.5.5 0 110-1h4.961l1.37-1.37c.407-.407.946-.63 1.52-.63H0v4.5C0 10.879 1.121 12 2.5 12H5v-.727zm5.039-4.936a1.15 1.15 0 011.625 1.625L8.26 11.364A2.167 2.167 0 016.728 12H6v-.727c0-.575.229-1.127.635-1.533l3.404-3.404z"/></svg><svg viewBox="0 0 15 15" id="chat" xmlns="http://www.w3.org/2000/svg"><path d="M12.5 0h-10A2.5 2.5 0 000 2.5V10a2.5 2.5 0 002.5 2.5h1.813l2.781 2.352a.625.625 0 00.808 0l2.785-2.352H12.5A2.5 2.5 0 0015 10V2.5A2.5 2.5 0 0012.5 0zM4.375 3.125H7.5a.625.625 0 010 1.25H4.375a.625.625 0 010-1.25zm6.25 6.25h-6.25a.625.625 0 010-1.25h6.25a.625.625 0 110 1.25zm0-2.5h-6.25a.625.625 0 010-1.25h6.25a.625.625 0 110 1.25z"/></svg><svg viewBox="0 0 21 20" id="check" xmlns="http://www.w3.org/2000/svg"><path d="M6.675 7l3.825 3.535L14.325 7 15.5 8.094l-5 4.62-5-4.62L6.675 7z"/></svg><svg viewBox="0 0 20 21" id="check-circle" xmlns="http://www.w3.org/2000/svg"><path fill-rule="evenodd" clip-rule="evenodd" d="M13.98 8.107a.75.75 0 01-.025 1.06L9.37 13.544a.75.75 0 01-1.036 0l-2.289-2.188a.75.75 0 111.037-1.085l1.771 1.693 4.068-3.88a.75.75 0 011.06.024z"/><path fill-rule="evenodd" clip-rule="evenodd" d="M10 3.75a6.75 6.75 0 100 13.5 6.75 6.75 0 000-13.5zM1.75 10.5a8.25 8.25 0 1116.5 0 8.25 8.25 0 01-16.5 0z"/></svg><svg viewBox="0 0 20 20" id="clock" xmlns="http://www.w3.org/2000/svg"><path d="M10 17.5a7.5 7.5 0 100-15 7.5 7.5 0 000 15z"/><path d="M10 5.625V10h4.375"/></svg><svg viewBox="0 0 9 9" id="close" xmlns="http://www.w3.org/2000/svg"><path d="M7.031 1.969L1.97 7.03m5.061.001L1.97 1.97"/></svg><svg viewBox="0 0 15 16" id="comment" xmlns="http://www.w3.org/2000/svg"><g clip-path="url(#ata)"><path d="M8.437 7.063a.938.938 0 11-1.876-.001.938.938 0 011.876 0zm2.188-.938a.938.938 0 100 1.876.938.938 0 000-1.876zm-6.25 0a.938.938 0 100 1.876.938.938 0 000-1.876zM15 3v7.5c0 1.379-1.122 2.5-2.5 2.5h-1.783l-2.405 1.988a1.21 1.21 0 01-.807.302c-.298 0-.597-.105-.836-.317L4.326 13H2.499a2.503 2.503 0 01-2.5-2.5V3c0-1.379 1.122-2.5 2.5-2.5h10A2.502 2.502 0 0115 3zm-1.25 0c0-.69-.561-1.25-1.25-1.25h-10c-.69 0-1.25.56-1.25 1.25v7.5c0 .69.56 1.25 1.25 1.25h2.055c.147 0 .29.052.403.147l2.53 2.131 2.607-2.135a.624.624 0 01.398-.143H12.5c.69 0 1.25-.56 1.25-1.25V3z"/></g><defs><clipPath id="ata"><path transform="translate(0 .5)" d="M0 0h15v15H0z"/></clipPath></defs></svg><svg viewBox="0 0 20 20" id="complain" xmlns="http://www.w3.org/2000/svg"><path d="M9.167 10.832v-5c0-.458.375-.833.833-.833.458 0 .833.375.833.833v5a.836.836 0 01-.833.833.836.836 0 01-.833-.833zM10 12.499c-.692 0-1.25.558-1.25 1.25a1.25 1.25 0 101.25-1.25zm9.65 4.066c-.583 1.125-1.808 1.767-3.342 1.767H3.7c-1.542 0-2.758-.642-3.342-1.767-.591-1.133-.425-2.583.417-3.8l6.7-10.6A3.06 3.06 0 0110 .832c1 0 1.933.483 2.5 1.308l6.733 10.642c.842 1.217 1 2.658.409 3.783h.008zm-1.792-2.85s-.017-.016-.017-.033L11.117 3.057A1.366 1.366 0 0010 2.499a1.36 1.36 0 00-1.133.591L2.158 13.682c-.516.733-.633 1.533-.333 2.108.292.567.958.875 1.867.875h12.6c.908 0 1.574-.308 1.866-.875.3-.575.183-1.375-.308-2.075h.008z"/></svg><svg viewBox="0 0 12 13" id="crosshair" xmlns="http://www.w3.org/2000/svg"><path d="M6 10.625a4.125 4.125 0 100-8.25 4.125 4.125 0 000 8.25zm0-9.187v1.875M.938 6.5h1.875M6 11.563V9.687M11.063 6.5H9.187"/><path d="M6 8a1.5 1.5 0 100-3 1.5 1.5 0 000 3z"/></svg><svg viewBox="0 0 15 14" id="crown" xmlns="http://www.w3.org/2000/svg"><g clip-path="url(#awa)"><path d="M14.229 1.538a1.102 1.102 0 00-.723-.082 1.208 1.208 0 00-.64.392L11.25 3.697 8.384.419A1.176 1.176 0 007.5 0c-.331 0-.65.15-.884.419L3.75 3.697 2.134 1.848a1.21 1.21 0 00-.64-.39 1.105 1.105 0 00-.722.08 1.303 1.303 0 00-.561.527A1.58 1.58 0 000 2.859v7.567c.001.947.33 1.856.916 2.526.586.67 1.38 1.047 2.209 1.048h8.75c.829-.001 1.623-.378 2.209-1.048.585-.67.915-1.579.916-2.526V2.859c0-.283-.073-.56-.21-.794a1.303 1.303 0 00-.561-.527z"/></g><defs><clipPath id="awa"><path d="M0 0h15v14H0z"/></clipPath></defs></svg><svg viewBox="0 0 15 16" id="dislike" xmlns="http://www.w3.org/2000/svg"><path fill-rule="evenodd" clip-rule="evenodd" d="M13.928 9.7l-.703-5.626a1.412 1.412 0 00-1.395-1.23H1.875a.937.937 0 00-.938.937v5.156a.937.937 0 00.938.938h2.52l2.214 4.43a.48.48 0 00.422.258 2.35 2.35 0 002.344-2.344v-.938h3.158A1.4 1.4 0 0013.928 9.7zm-5.753 2.517v-2.136h4.363a.201.201 0 00.2-.226l-.001-.007-.702-5.62v-.001a.213.213 0 00-.209-.183H5.42V9.24l2.022 4.045a1.148 1.148 0 00.734-1.068zM4.219 3.781H1.875v5.156h2.344V3.782z"/></svg><svg viewBox="0 0 15 16" id="dollar" xmlns="http://www.w3.org/2000/svg"><g clip-path="url(#aya)"><path d="M10 14.875c0 .345-.28.625-.625.625H3.75a3.129 3.129 0 01-3.125-3.125v-8.75A3.129 3.129 0 013.75.5h2.822a4.35 4.35 0 013.094 1.281l2.177 2.179c.17.17.327.355.468.552a.625.625 0 11-1.017.726c-.1-.14-.213-.274-.334-.394L8.782 2.666a3.132 3.132 0 00-.657-.503v2.712c0 .344.28.625.625.625h1.875a.625.625 0 110 1.25H8.75a1.877 1.877 0 01-1.875-1.875v-3.11a3.25 3.25 0 00-.303-.015H3.75a1.877 1.877 0 00-1.875 1.875v8.75c0 1.034.841 1.875 1.875 1.875h5.625c.346 0 .625.28.625.625zm3.553-4.208l-1.9-.317a.48.48 0 01-.403-.475c0-.344.28-.625.625-.625h1.418c.222 0 .43.12.541.313a.624.624 0 101.082-.626 1.88 1.88 0 00-1.624-.938h-.168v-.625a.625.625 0 10-1.25 0V8A1.877 1.877 0 0010 9.874c0 .85.61 1.57 1.447 1.708l1.9.317a.48.48 0 01.403.475c0 .345-.28.625-.625.625h-1.417a.63.63 0 01-.542-.312.623.623 0 10-1.081.626 1.88 1.88 0 001.623.936h.168v.625a.625.625 0 101.25 0v-.625A1.877 1.877 0 0015 12.374c0-.85-.609-1.568-1.447-1.707zm-8.866-.792h3.438a.625.625 0 100-1.25H4.687c-.86 0-1.562.701-1.562 1.563v1.25c0 .86.701 1.562 1.563 1.562h3.437a.625.625 0 100-1.25H4.687a.313.313 0 01-.312-.313v-1.25c0-.172.14-.312.313-.312zm-.937-2.5H5a.625.625 0 000-1.25H3.75a.625.625 0 000 1.25zm0-2.5H5a.625.625 0 000-1.25H3.75a.625.625 0 000 1.25z"/></g><defs><clipPath id="aya"><path transform="translate(0 .5)" d="M0 0h15v15H0z"/></clipPath></defs></svg><svg viewBox="0 0 12 12" id="donate" xmlns="http://www.w3.org/2000/svg"><g clip-path="url(#aza)"><path d="M12 10.25c0 .965-.785 1.75-1.75 1.75h-8.5c-1.976-.005-2.403-2.806-.543-3.405 2.262 3.175 7.324 3.174 9.585 0 .699.23 1.208.881 1.208 1.655zM11 5c0 2.757-2.243 5-5 5C-.624 9.748-.622.25 6 0c2.757 0 5 2.243 5 5zM8 6c0-.68-.487-1.255-1.158-1.367l-1.52-.253c-.544-.105-.32-.913.178-.88h1.134a.5.5 0 01.433.25.499.499 0 10.866-.5 1.505 1.505 0 00-1.3-.75H6.5V2c-.003-.654-.998-.653-1 0v.5c-1.718-.01-2.092 2.542-.343 2.867l1.52.253c.544.105.321.912-.177.88H5.366a.502.502 0 01-.434-.25.499.499 0 10-.865.5c.267.463.765.75 1.299.75H5.5V8c.003.654.997.653 1 0v-.5C7.327 7.5 8 6.827 8 6z"/></g><defs><clipPath id="aza"><path d="M0 0h12v12H0z"/></clipPath></defs></svg><svg viewBox="0 0 14 14" id="door-open" xmlns="http://www.w3.org/2000/svg"><g clip-path="url(#baa)"><path d="M11.667 12.832V2.916c0-.965-.785-1.75-1.75-1.75h-.694a1.735 1.735 0 00-.53-.77A1.748 1.748 0 007.24.034l-3.5.7a1.755 1.755 0 00-1.407 1.715v10.383H0V14h14v-1.167h-2.333zM7.292 7.728a.875.875 0 110-1.75.875.875 0 010 1.75zm3.208 5.104H9.333v-10.5h.584c.321 0 .583.262.583.584v9.917z"/></g><defs><clipPath id="baa"><path d="M0 0h14v14H0z"/></clipPath></defs></svg><svg viewBox="0 0 12 14" id="dots-vertical" xmlns="http://www.w3.org/2000/svg"><g clip-path="url(#bba)"><path d="M6.5 4a1.5 1.5 0 100-3 1.5 1.5 0 000 3zm0 4.5a1.5 1.5 0 100-3 1.5 1.5 0 000 3zm0 5a1.5 1.5 0 100-3 1.5 1.5 0 000 3z"/></g><defs><clipPath id="bba"><path transform="translate(0 .5)" d="M0 0h12v13H0z"/></clipPath></defs></svg><svg viewBox="0 0 15 15" id="favorite" xmlns="http://www.w3.org/2000/svg"><path d="M10.936 0a3.646 3.646 0 00-1.995.648c-.603.412-1.1.998-1.441 1.698A4.345 4.345 0 006.059.648 3.646 3.646 0 004.064 0c-1.122.055-2.178.614-2.94 1.553-.76.94-1.163 2.183-1.121 3.46 0 3.233 2.99 6.764 5.498 9.158.56.535 1.268.829 1.999.829.731 0 1.44-.294 2-.83 2.507-2.393 5.497-5.924 5.497-9.157.042-1.277-.361-2.52-1.122-3.46C13.115.613 12.058.055 10.936 0z"/></svg><svg viewBox="0 0 21 20" id="filter" xmlns="http://www.w3.org/2000/svg"><path d="M12.063 13.438H3.624m13.751 0h-2.188M13.625 15a1.563 1.563 0 100-3.125 1.563 1.563 0 000 3.125zM7.063 6.563H3.624m13.751 0h-7.188M8.625 8.125a1.563 1.563 0 100-3.125 1.563 1.563 0 000 3.125z"/></svg><svg viewBox="0 0 12 12" id="fingerprint" xmlns="http://www.w3.org/2000/svg"><g clip-path="url(#bea)"><path d="M4.25 11.218a.75.75 0 01-.44-1.358c1.256-.91 1.432-2.59 1.439-4.114A.75.75 0 016 4.999h.003a.75.75 0 01.747.754c-.005 1.15-.016 3.843-2.06 5.322a.743.743 0 01-.44.143zm3.014.497c.406-.507.74-1.067.993-1.666a.75.75 0 10-1.381-.587c-.197.47-.458.91-.776 1.308a.75.75 0 001.166.945h-.002zm1.704-4.92C9 6.286 9 5.832 9 5.5a3 3 0 00-4-2.83.75.75 0 10.5 1.414 1.5 1.5 0 012 1.415c0 .33 0 .74-.029 1.204a.75.75 0 00.703.796h.046a.75.75 0 00.748-.703zM2.345 9.478c.326-.038.64-.143.923-.309C4.49 8.436 4.495 6.885 4.5 5.752A.75.75 0 003.752 5H3.75a.75.75 0 00-.75.747c-.005 1.193-.086 1.886-.5 2.136a.911.911 0 01-.343.108.75.75 0 00.188 1.487zm8.014 2.086A14.35 14.35 0 0011.5 5.5c0-.694-.13-1.382-.387-2.027a.75.75 0 00-1.394.554c.186.469.282.969.281 1.473a12.953 12.953 0 01-1.003 5.436.75.75 0 001.363.628zM2 6.25V5.5a4 4 0 015.894-3.523.75.75 0 00.713-1.32A5.5 5.5 0 00.5 5.5v.75a.75.75 0 101.5 0z"/></g><defs><clipPath id="bea"><path d="M0 0h12v12H0z"/></clipPath></defs></svg><svg viewBox="0 0 12 12" id="home" xmlns="http://www.w3.org/2000/svg"><g clip-path="url(#bfa)"><path d="M6 7.496a1.5 1.5 0 00-1.5 1.5v3h3v-3a1.5 1.5 0 00-1.5-1.5z"/><path d="M8.5 8.996v3h2a1.5 1.5 0 001.5-1.5v-4.56a1 1 0 00-.281-.696L7.469.646a2 2 0 00-2.937 0L.291 5.238A1 1 0 000 5.943v4.553a1.5 1.5 0 001.5 1.5h2v-3c.01-1.363 1.11-2.476 2.44-2.508 1.373-.034 2.55 1.099 2.56 2.508z"/><path d="M6 7.496a1.5 1.5 0 00-1.5 1.5v3h3v-3a1.5 1.5 0 00-1.5-1.5z"/></g><defs><clipPath id="bfa"><path d="M0 0h12v12H0z"/></clipPath></defs></svg><svg viewBox="0 0 17 16" id="house" xmlns="http://www.w3.org/2000/svg"><path d="M7.719 9.751v-2.25a.36.36 0 00-.12-.265.424.424 0 00-.287-.11H5.688a.424.424 0 00-.287.11.361.361 0 00-.119.265v2.25a.36.36 0 01-.119.266.424.424 0 01-.287.11H2.437a.424.424 0 01-.287-.11.36.36 0 01-.119-.266V5.416a.36.36 0 01.036-.151.39.39 0 01.096-.126L6.226 1.73a.426.426 0 01.274-.098c.101 0 .2.035.274.098l4.063 3.408a.39.39 0 01.096.126.365.365 0 01.036.15V9.75c0 .1-.043.195-.12.266a.424.424 0 01-.287.11H8.126a.424.424 0 01-.287-.11.36.36 0 01-.12-.266z"/><path d="M9.408 13.2v1h3.285v-2.42h2.608V8.618h-2.608V6.2H9.41v2.42H6.8v3.161h2.607v1.42z"/></svg><svg viewBox="0 0 24 24" id="house-stroke" xmlns="http://www.w3.org/2000/svg"><path d="M11.875 16.25V12.5a.624.624 0 00-.625-.625h-2.5a.625.625 0 00-.625.625v3.75a.625.625 0 01-.625.625H3.75a.625.625 0 01-.625-.625V9.023a.648.648 0 01.203-.46l6.25-5.68a.625.625 0 01.844 0l6.25 5.68a.648.648 0 01.203.46v7.227a.624.624 0 01-.625.625H12.5a.624.624 0 01-.625-.625z"/><path d="M15.012 22v1h3.976v-4.032H23v-3.936h-4.012V11h-3.976v4.032H11v3.936h4.012V22z"/></svg><svg viewBox="0 0 20 20" id="info" xmlns="http://www.w3.org/2000/svg"><path d="M10 17.5a7.5 7.5 0 100-15 7.5 7.5 0 000 15z"/><path d="M9.375 9.375H10v4.375h.625M9.844 7.344a.781.781 0 100-1.563.781.781 0 000 1.563z"/></svg><svg viewBox="0 0 12 12" id="key" xmlns="http://www.w3.org/2000/svg"><path d="M7.993 6.35V5a.5.5 0 01.5-.5h.5a.5.5 0 00.5-.5v-.5a.5.5 0 01.5-.5h1.343a.509.509 0 00.462-.3 2.26 2.26 0 00.188-1.188A1.745 1.745 0 0010.232 0a2.27 2.27 0 00-1.605.665L4.672 4.618a3.751 3.751 0 00-3.386 6.46 3.752 3.752 0 002.855.902 3.766 3.766 0 003.215-2.715 3.67 3.67 0 00.024-1.94L7.705 7a.992.992 0 00.288-.65zM2.746 10a.75.75 0 110-1.501.75.75 0 010 1.501z"/></svg><svg viewBox="0 0 16 17" id="lightning" xmlns="http://www.w3.org/2000/svg"><path d="M13.488 7.89a.5.5 0 00-.312-.357l-3.6-1.35.912-4.581a.506.506 0 00-.256-.544.494.494 0 00-.594.1l-7 7.5a.494.494 0 00-.012.673c.054.062.123.11.2.14l3.6 1.35-.913 4.58a.506.506 0 00.256.544.495.495 0 00.594-.1l7-7.5a.493.493 0 00.125-.456z"/></svg><svg viewBox="0 0 14 13" id="like" xmlns="http://www.w3.org/2000/svg"><path fill-rule="evenodd" clip-rule="evenodd" d="M.072 5.3l.703 5.626a1.412 1.412 0 001.395 1.23h9.955a.937.937 0 00.938-.937V6.063a.938.938 0 00-.938-.938h-2.52L7.391.695a.48.48 0 00-.422-.257A2.35 2.35 0 004.625 2.78v.938H1.467A1.4 1.4 0 00.072 5.3zm5.753-2.517v2.136H1.462a.2.2 0 00-.2.226l.001.007.702 5.62v.001a.212.212 0 00.209.183H8.58V5.76L6.56 1.715a1.15 1.15 0 00-.734 1.068zm3.956 8.436h2.344V6.063H9.781v5.156z"/></svg><svg viewBox="0 0 25 24" id="like-two" xmlns="http://www.w3.org/2000/svg"><path d="M14.5 6.75v1h6.05a1.287 1.287 0 01.94.42 1.298 1.298 0 01.302.991v.003l-1.124 8.989v.002a1.26 1.26 0 01-1.242 1.095H8.25V9.799l.176-.352 3.471-6.943A2.76 2.76 0 0114.5 5.251V6.75z"/></svg><svg viewBox="0 0 15 15" id="list" xmlns="http://www.w3.org/2000/svg"><g clip-path="url(#bna)"><path d="M5 4.375h9.063a.937.937 0 000-1.875H5a.937.937 0 100 1.875zm9.063 2.5H5A.937.937 0 105 8.75h9.063a.937.937 0 000-1.875zm0 4.375H5a.938.938 0 000 1.875h9.063a.938.938 0 000-1.875zM1.563 5a1.563 1.563 0 100-3.125 1.563 1.563 0 000 3.125zm0 4.063a1.563 1.563 0 100-3.126 1.563 1.563 0 000 3.125zm0 4.375a1.563 1.563 0 100-3.126 1.563 1.563 0 000 3.126z"/></g><defs><clipPath id="bna"><path d="M0 0h15v15H0z"/></clipPath></defs></svg><svg viewBox="0 0 15 15" id="list-check" xmlns="http://www.w3.org/2000/svg"><g clip-path="url(#boa)"><path d="M2.5 4.372A2.173 2.173 0 01.951 3.73l-.991-.99 1.326-1.327.99.99a.313.313 0 00.443 0L4.96.165 6.288 1.49 4.046 3.73a2.173 2.173 0 01-1.547.642zM15 1.247H7.5v1.875H15V1.247zM4.045 8.73l2.242-2.24-1.326-1.326L2.72 7.405a.312.312 0 01-.442 0l-.99-.99L-.04 7.74l.991.99a2.188 2.188 0 003.094 0zm10.953-2.484H7.5v1.875H15V6.247zM4.046 13.73l2.241-2.241-1.326-1.326-2.241 2.241a.312.312 0 01-.442 0l-.99-.99L-.04 12.74l.991.99a2.188 2.188 0 003.094 0zm10.953-2.484H7.5v1.875H15v-1.875z"/></g><defs><clipPath id="boa"><path d="M0 0h15v15H0z"/></clipPath></defs></svg><svg viewBox="0 0 8 10" id="location" xmlns="http://www.w3.org/2000/svg"><path d="M0 4.183C0 1.889 1.758 0 4 0c2.234 0 4 1.907 4 4.183 0 .224-.023.452-.067.683-.2 1.047-.823 2.13-1.734 3.214a15.001 15.001 0 01-1.742 1.75.702.702 0 01-.902.01 13.78 13.78 0 01-.553-.493c-.409-.384-.818-.81-1.2-1.266C.892 6.998.269 5.917.068 4.871A3.645 3.645 0 010 4.184zm4 1.65c.884 0 1.6-.746 1.6-1.666C5.6 3.247 4.884 2.5 4 2.5c-.884 0-1.6.746-1.6 1.667 0 .92.716 1.666 1.6 1.666z"/></svg><svg viewBox="0 0 19 18" id="location-two" xmlns="http://www.w3.org/2000/svg"><path d="M9.5 9a3 3 0 100-6 3 3 0 000 6zm0-4.5a1.5 1.5 0 110 3 1.5 1.5 0 010-3zm6.495 2.368l-.54-.18A6 6 0 009.5 0a5.995 5.995 0 00-5.935 6.819 3.784 3.784 0 00-1.911.975A3.71 3.71 0 00.5 10.5v3.056a3.76 3.76 0 002.7 3.6l2.153.675a3.759 3.759 0 002.133.029l4.334-1.282a2.24 2.24 0 011.18 0l1.79.6a3.001 3.001 0 003.71-2.912v-3.862a3.761 3.761 0 00-2.505-3.537zM6.319 2.82a4.49 4.49 0 016.362 0 4.528 4.528 0 01.009 6.375l-2.665 2.592a.744.744 0 01-1.042 0L6.32 9.208a4.53 4.53 0 010-6.386zM17 14.267a1.493 1.493 0 01-.573 1.179 1.476 1.476 0 01-1.22.296l-1.758-.591a3.767 3.767 0 00-2.038-.012L7.073 16.42a2.25 2.25 0 01-1.27-.022l-2.171-.675A2.26 2.26 0 012 13.556V10.5a2.223 2.223 0 01.69-1.622 2.268 2.268 0 011.252-.605c.302.75.752 1.43 1.324 2.002l2.675 2.59a2.237 2.237 0 003.13 0l2.672-2.598a5.97 5.97 0 001.36-2.115l.403.133A2.254 2.254 0 0117 10.404v3.862z"/></svg><svg viewBox="0 0 12 12" id="money-check-edit" xmlns="http://www.w3.org/2000/svg"><g clip-path="url(#bra)"><path d="M8.291 6.5H7v-1h2.31a2.25 2.25 0 011.421-.5c.46 0 .898.135 1.269.386V2.5c0-.827-.673-1.5-1.5-1.5h-9C.673 1 0 1.673 0 2.5V11h5V9.79L8.291 6.5zM7 3.5h3v1H7v-1zM4.178 6.62l-1.52-.253A1.38 1.38 0 011.5 5c0-.827.673-1.5 1.5-1.5V3h1v.5c.827 0 1.5.673 1.5 1.5h-1a.5.5 0 00-.5-.5H3a.5.5 0 00-.5.5c0 .189.135.349.322.38l1.52.253A1.38 1.38 0 015.5 7c0 .827-.673 1.5-1.5 1.5V9H3v-.5c-.827 0-1.5-.673-1.5-1.5h1a.5.5 0 00.5.5h1a.5.5 0 00.5-.5.384.384 0 00-.322-.38zm7.823.649c0 .339-.133.658-.372.897L7.795 12H6v-1.795l3.834-3.833a1.27 1.27 0 012.167.897z"/></g><defs><clipPath id="bra"><path d="M0 0h12v12H0z"/></clipPath></defs></svg><svg viewBox="0 0 12 12" id="new-buildings" xmlns="http://www.w3.org/2000/svg"><path d="M5.5 0h-4A1.5 1.5 0 000 1.5V12h7V1.5A1.5 1.5 0 005.5 0zM3 9.5H1.5v-1H3v1zm0-2H1.5v-1H3v1zm0-2H1.5v-1H3v1zm0-2H1.5v-1H3v1zm2.5 6H4v-1h1.5v1zm0-2H4v-1h1.5v1zm0-2H4v-1h1.5v1zm0-2H4v-1h1.5v1zm5-1H8V12h4V4a1.5 1.5 0 00-1.5-1.5zm0 7h-1v-1h1v1zm0-2h-1v-1h1v1zm0-2h-1v-1h1v1z"/></svg><svg viewBox="0 0 12 12" id="pause" xmlns="http://www.w3.org/2000/svg"><g clip-path="url(#bta)"><path d="M0 8.75a1.75 1.75 0 001.75 1.75h8.5a1.75 1.75 0 000-3.5h-8.5A1.75 1.75 0 000 8.75zm0-5.5A1.75 1.75 0 001.75 5h8.5a1.75 1.75 0 000-3.5h-8.5A1.75 1.75 0 000 3.25z"/></g><defs><clipPath id="bta"><path transform="rotate(-90 6 6)" d="M0 0h12v12H0z"/></clipPath></defs></svg><svg viewBox="0 0 20 20" id="prohibit" xmlns="http://www.w3.org/2000/svg"><path fill-rule="evenodd" clip-rule="evenodd" d="M10 3.25a6.75 6.75 0 100 13.5 6.75 6.75 0 000-13.5zM1.75 10a8.25 8.25 0 1116.5 0 8.25 8.25 0 01-16.5 0z"/><path fill-rule="evenodd" clip-rule="evenodd" d="M4.165 4.165a.75.75 0 011.06 0l10.61 10.61a.75.75 0 11-1.06 1.06L4.164 5.225a.75.75 0 010-1.06z"/></svg><svg viewBox="0 0 20 20" id="search" xmlns="http://www.w3.org/2000/svg"><path fill-rule="evenodd" clip-rule="evenodd" d="M9.063 3.25a5.812 5.812 0 100 11.625 5.812 5.812 0 000-11.625zM1.75 9.063a7.313 7.313 0 1114.625 0 7.313 7.313 0 01-14.625 0z"/><path fill-rule="evenodd" clip-rule="evenodd" d="M13.173 13.173a.75.75 0 011.06 0l3.797 3.797a.75.75 0 11-1.06 1.06l-3.797-3.797a.75.75 0 010-1.06z"/></svg><svg viewBox="0 0 16 17" id="settings" xmlns="http://www.w3.org/2000/svg"><path d="M14.675 9.902l-.931-1.238c.006-.112 0-.23 0-.318l.93-1.244a.487.487 0 00.082-.431 7.174 7.174 0 00-.681-1.65.512.512 0 00-.363-.25l-1.53-.22-.232-.23-.219-1.532a.524.524 0 00-.244-.362 7.343 7.343 0 00-1.656-.681.488.488 0 00-.431.08l-1.238.926h-.325L6.6 1.827a.488.488 0 00-.431-.081 7.176 7.176 0 00-1.65.68.513.513 0 00-.25.363l-.22 1.532-.23.23-1.532.22a.513.513 0 00-.362.25 7.175 7.175 0 00-.681 1.65.488.488 0 00.08.43l.932 1.238v.32l-.931 1.243a.488.488 0 00-.081.431 7.2 7.2 0 00.68 1.65.513.513 0 00.363.25l1.532.219.23.231.22 1.531a.513.513 0 00.25.363c.52.295 1.073.524 1.65.681a.481.481 0 00.431-.081l1.237-.925h.325l1.238.925a.487.487 0 00.431.081 7.062 7.062 0 001.65-.681.512.512 0 00.25-.363l.219-1.537c.075-.075.162-.156.225-.225l1.537-.219a.513.513 0 00.363-.25 7.16 7.16 0 00.681-1.65.487.487 0 00-.081-.431zM8 11.252a2.75 2.75 0 110-5.5 2.75 2.75 0 010 5.5z"/></svg><svg viewBox="0 0 17 17" id="share" xmlns="http://www.w3.org/2000/svg"><g clip-path="url(#bxa)"><path d="M13.389 10.278a3.106 3.106 0 00-2.56 1.35L6.49 9.668a3.05 3.05 0 00.003-2.325l4.334-1.97a3.107 3.107 0 10-.552-1.761c.003.175.021.35.054.524L5.722 6.229a3.112 3.112 0 10-.01 4.551l4.619 2.086c-.032.172-.05.347-.053.523a3.111 3.111 0 103.11-3.11zm0-8.445a1.778 1.778 0 11.001 3.557 1.778 1.778 0 01-.001-3.556zM3.61 10.278a1.778 1.778 0 110-3.557 1.778 1.778 0 010 3.557zm9.778 4.889a1.778 1.778 0 110-3.555 1.778 1.778 0 010 3.555z"/></g><defs><clipPath id="bxa"><path transform="translate(.5 .5)" d="M0 0h16v16H0z"/></clipPath></defs></svg><svg viewBox="0 0 12 12" id="shield" xmlns="http://www.w3.org/2000/svg"><g clip-path="url(#bya)"><path d="M9.972 1.32L6 .004 2.028 1.32A1.5 1.5 0 001 2.744V6c0 3.762 4.6 5.84 4.797 5.926l.177.079.184-.061C6.355 11.877 11 10.288 11 5.999V2.744A1.5 1.5 0 009.972 1.32z"/></g><defs><clipPath id="bya"><path d="M0 0h12v12H0z"/></clipPath></defs></svg><svg viewBox="0 0 15 15" id="shopping-bag" xmlns="http://www.w3.org/2000/svg"><g clip-path="url(#bza)"><path d="M15 5.625a1.875 1.875 0 00-1.875-1.875H11.25a3.75 3.75 0 00-7.5 0H1.875A1.875 1.875 0 000 5.625v6.25A3.129 3.129 0 003.125 15h8.75A3.129 3.129 0 0015 11.875v-6.25zM5 3.75a2.5 2.5 0 115 0H5z"/></g><defs><clipPath id="bza"><path d="M0 0h15v15H0z"/></clipPath></defs></svg><svg viewBox="0 0 15 15" id="sign-in" xmlns="http://www.w3.org/2000/svg"><g clip-path="url(#caa)"><path d="M11.618 0H3.382A3.357 3.357 0 000 3.324v1.165a.938.938 0 101.875 0V3.324a1.48 1.48 0 011.507-1.449h8.236a1.48 1.48 0 011.507 1.449v8.352a1.481 1.481 0 01-1.507 1.45H3.382a1.481 1.481 0 01-1.507-1.45v-1.165a.937.937 0 10-1.875 0v1.165A3.357 3.357 0 003.382 15h8.236A3.357 3.357 0 0015 11.676V3.324A3.357 3.357 0 0011.618 0z"/><path d="M2.188 7.5a.937.937 0 00.937.938l6.234-.017-2.166 2.166a.937.937 0 101.326 1.326l2.866-2.866a2.186 2.186 0 000-3.094L8.521 3.087a.938.938 0 00-1.325 1.326l2.133 2.133-6.204.017a.937.937 0 00-.938.937z"/></g><defs><clipPath id="caa"><path d="M0 0h15v15H0z"/></clipPath></defs></svg><svg viewBox="0 0 17 15" id="star" xmlns="http://www.w3.org/2000/svg"><path d="M8.5 0l2.586 4.44 5.022 1.088-3.423 3.832.517 5.112L8.5 12.4l-4.702 2.072.517-5.112L.892 5.528 5.914 4.44 8.5 0z"/></svg><svg viewBox="0 0 16 16" id="tg" xmlns="http://www.w3.org/2000/svg"><path d="M14.232 3.017l-3.275 11.62a.994.994 0 01-.882.724h-.087a1 1 0 01-.9-.569L6.857 10.08a.256.256 0 01.05-.288l3.206-3.206a.5.5 0 10-.706-.706L6.2 9.092a.256.256 0 01-.287.05L1.225 6.924a1.037 1.037 0 01-.593-.975.994.994 0 01.73-.907l11.645-3.28a1 1 0 011.106.405 1.043 1.043 0 01.119.85z"/></svg><svg viewBox="0 0 20 20" id="thumbtack" xmlns="http://www.w3.org/2000/svg"><g clip-path="url(#cda)"><path d="M.833 20a.834.834 0 00.59-.244l5.515-5.516 1.04 1.077a4.307 4.307 0 003.004 1.345c.38 0 .758-.063 1.116-.19a3.025 3.025 0 002.03-2.601 7.08 7.08 0 00-.186-2.523l-.178-.868a.834.834 0 01.22-.786l1.322-1.323a.283.283 0 01.197-.083.142.142 0 01.14.054 2.564 2.564 0 003.308.36 2.5 2.5 0 00.316-3.804l-4.1-4.103a2.571 2.571 0 00-3.282-.333 2.5 2.5 0 00-.317 3.804l.064.063a.257.257 0 010 .362l-1.334 1.333a.834.834 0 01-.795.218l-.68-.174a7.193 7.193 0 00-2.569-.195 3.22 3.22 0 00-2.713 2.155 3.333 3.333 0 00.774 3.5l1.465 1.517-5.536 5.533A.833.833 0 00.834 20zm4.28-11.417A1.547 1.547 0 016.426 7.53a5.584 5.584 0 011.979.15l.685.176a2.508 2.508 0 002.386-.654l1.333-1.334a1.925 1.925 0 000-2.718l-.064-.063a.834.834 0 01.112-1.274.903.903 0 011.13.159l4.104 4.103a.834.834 0 01-.112 1.273.904.904 0 01-1.14-.166 1.843 1.843 0 00-1.32-.56 2 2 0 00-1.39.57L12.81 8.514a2.5 2.5 0 00-.667 2.334l.183.881c.168.643.22 1.31.15 1.972a1.38 1.38 0 01-.928 1.203 2.333 2.333 0 01-2.376-.75l-3.666-3.791a1.69 1.69 0 01-.393-1.78z"/></g><defs><clipPath id="cda"><path d="M0 0h20v20H0z"/></clipPath></defs></svg><svg viewBox="0 0 15 15" id="time" xmlns="http://www.w3.org/2000/svg"><path d="M15 4.375V5H0v-.625C0 2.649 1.4 1.25 3.125 1.25h.625V.625a.625.625 0 011.25 0v.625h5V.625a.625.625 0 011.25 0v.625h.625C13.601 1.25 15 2.65 15 4.375zm0 6.25A4.38 4.38 0 0110.625 15a4.38 4.38 0 01-4.375-4.375 4.38 4.38 0 014.375-4.375A4.38 4.38 0 0115 10.625zm-3.125.366l-.625-.625v-.991a.625.625 0 00-1.25 0v1.25c0 .166.066.325.183.442l.808.808a.625.625 0 00.884-.884zM5 10.625A5.61 5.61 0 017.093 6.25H0v5.625C0 13.601 1.4 15 3.125 15h3.968A5.612 5.612 0 015 10.625z"/></svg><svg viewBox="0 0 12 12" id="users-alt" xmlns="http://www.w3.org/2000/svg"><path d="M6 8a2 2 0 110-4 2 2 0 010 4zM2.841 8H.5a.5.5 0 01-.5-.5 3.011 3.011 0 012.566-2.958.5.5 0 01.55.633 2.968 2.968 0 00.178 2.11.5.5 0 01-.451.715h-.002zM8.5 12h-5a.5.5 0 01-.5-.5 3 3 0 016 0 .5.5 0 01-.5.5zM9 4a2 2 0 110-4 2 2 0 010 4zM3 4a2 2 0 110-4 2 2 0 010 4zm8.5 4H9.159a.5.5 0 01-.45-.715 2.969 2.969 0 00.173-2.11.5.5 0 01.553-.633A3.01 3.01 0 0112 7.5a.5.5 0 01-.5.5z"/></svg><svg viewBox="0 0 20 20" id="vk" xmlns="http://www.w3.org/2000/svg"><path fill-rule="evenodd" clip-rule="evenodd" d="M0 10C0 4.477 4.477 0 10 0s10 4.477 10 10-4.477 10-10 10S0 15.523 0 10z"/><path fill-rule="evenodd" clip-rule="evenodd" d="M10.603 13.816s.222-.024.336-.145c.104-.11.1-.319.1-.319s-.013-.972.445-1.116c.451-.141 1.031.94 1.646 1.357.465.314.818.246.818.246l1.644-.023s.86-.052.452-.719c-.034-.054-.238-.493-1.222-1.394-1.031-.943-.893-.79.348-2.422.756-.994 1.059-1.6.964-1.86-.09-.248-.646-.182-.646-.182l-1.85.011s-.138-.018-.24.042c-.099.059-.163.196-.163.196s-.293.768-.683 1.423c-.824 1.379-1.154 1.452-1.288 1.366-.314-.2-.236-.802-.236-1.23 0-1.337.206-1.895-.4-2.039-.201-.048-.35-.08-.864-.085-.66-.006-1.219.003-1.536.155-.21.102-.373.328-.274.342.123.016.4.073.546.27.19.255.183.826.183.826s.11 1.574-.254 1.77c-.25.133-.591-.14-1.326-1.392-.377-.641-.66-1.35-.66-1.35s-.055-.132-.154-.203a.764.764 0 00-.284-.113l-1.758.011s-.264.007-.361.12c-.086.1-.007.31-.007.31s1.377 3.175 2.936 4.776c1.43 1.467 3.053 1.371 3.053 1.371h.735z"/></svg><svg viewBox="0 0 20 20" id="warning" xmlns="http://www.w3.org/2000/svg"><path d="M9.167 10.832v-5c0-.458.375-.833.833-.833.458 0 .833.375.833.833v5a.836.836 0 01-.833.833.836.836 0 01-.833-.833zM10 12.499c-.692 0-1.25.558-1.25 1.25a1.25 1.25 0 101.25-1.25zm9.65 4.066c-.583 1.125-1.808 1.767-3.342 1.767H3.7c-1.542 0-2.758-.642-3.342-1.767-.591-1.133-.425-2.583.417-3.8l6.7-10.6A3.06 3.06 0 0110 .832c1 0 1.933.483 2.5 1.308l6.733 10.642c.842 1.217 1 2.658.409 3.783h.008zm-1.792-2.85s-.017-.016-.017-.033L11.117 3.057A1.366 1.366 0 0010 2.499a1.36 1.36 0 00-1.133.591L2.158 13.682c-.516.733-.633 1.533-.333 2.108.292.567.958.875 1.867.875h12.6c.908 0 1.574-.308 1.866-.875.3-.575.183-1.375-.308-2.075h.008z"/></svg><svg viewBox="0 0 20 20" id="x" xmlns="http://www.w3.org/2000/svg"><path fill-rule="evenodd" clip-rule="evenodd" d="M16.155 3.845a.75.75 0 010 1.06l-11.25 11.25a.75.75 0 01-1.06-1.06l11.25-11.25a.75.75 0 011.06 0z"/><path fill-rule="evenodd" clip-rule="evenodd" d="M3.845 3.845a.75.75 0 011.06 0l11.25 11.25a.75.75 0 11-1.06 1.06L3.845 4.905a.75.75 0 010-1.06z"/></svg></svg>