<?xml version="1.0" encoding="utf-8"?><svg viewBox="0 0 21 20" xmlns="http://www.w3.org/2000/svg" xmlns:xlink="http://www.w3.org/1999/xlink"><style>:root>svg{display:none}:root>svg:target{display:block}</style><svg viewBox="0 0 19 19" id="ChatCircleDots" xmlns="http://www.w3.org/2000/svg"><path d="M3.37 13.137a7.117 7.117 0 112.493 2.494L3.4 16.33a.585.585 0 01-.727-.728l.698-2.464z"/><path d="M9.5 10.242a.742.742 0 100-1.484.742.742 0 000 1.484zm3.563 0a.742.742 0 100-1.484.742.742 0 000 1.484zm-7.125 0a.742.742 0 100-1.484.742.742 0 000 1.484z"/></svg><svg viewBox="0 0 14 14" id="add" xmlns="http://www.w3.org/2000/svg"><g clip-path="url(#ba)"><path d="M7 0a7 7 0 107 7 7.007 7.007 0 00-7-7zm2.333 7.583h-1.75v1.75a.583.583 0 11-1.166 0v-1.75h-1.75a.583.583 0 110-1.166h1.75v-1.75a.583.583 0 111.166 0v1.75h1.75a.583.583 0 010 1.166z"/></g><defs><clipPath id="ba"><path d="M0 0h14v14H0z"/></clipPath></defs></svg><svg viewBox="0 0 15 16" id="bank" xmlns="http://www.w3.org/2000/svg"><g clip-path="url(#ca)"><path d="M0 14.251h15v1.25H0v-1.25zm15-8.807v1.307h-1.875v5h1.25v1.25H.625v-1.25h1.25v-5H0V5.444a1.875 1.875 0 01.977-1.646L6.602.73a1.87 1.87 0 011.796 0l5.625 3.068A1.875 1.875 0 0115 5.444zM3.125 11.751H5v-5H3.125v5zm3.125-5v5h2.5v-5h-2.5zm5.625 0H10v5h1.875v-5zm1.875-1.307a.625.625 0 00-.326-.549L7.8 1.827a.625.625 0 00-.598 0L1.576 4.895a.625.625 0 00-.326.55V5.5h12.5v-.057z"/></g><defs><clipPath id="ca"><path transform="translate(0 .5)" d="M0 0h15v15H0z"/></clipPath></defs></svg><svg viewBox="0 0 15 16" id="bolt" xmlns="http://www.w3.org/2000/svg"><g clip-path="url(#da)"><path d="M7.025 15.5c-.204 0-.407-.046-.592-.133a1.363 1.363 0 01-.75-1.638l.975-3.229H4.36a1.874 1.874 0 01-1.797-2.418l1.89-6.25A1.864 1.864 0 016.25.5h2.308a1.625 1.625 0 011.521 2.194L9.027 5.5h1.598a1.875 1.875 0 011.552 2.928l-4 6.437a1.374 1.374 0 01-1.152.635zM6.25 1.75a.625.625 0 00-.598.444l-1.89 6.25a.625.625 0 00.598.806H7.5a.625.625 0 01.598.806l-1.216 4.027a.115.115 0 00.075.15.119.119 0 00.138-.008.116.116 0 00.03-.037l4-6.438a.625.625 0 00.05-.664.611.611 0 00-.55-.336h-2.5a.625.625 0 01-.585-.844l1.368-3.65a.375.375 0 00-.35-.506H6.25z"/></g><defs><clipPath id="da"><path transform="translate(0 .5)" d="M0 0h15v15H0z"/></clipPath></defs></svg><svg viewBox="0 0 15 16" id="budget" xmlns="http://www.w3.org/2000/svg"><g clip-path="url(#ea)"><path d="M10.313.5c-2.63 0-4.688 1.236-4.688 2.813v1.616a8.011 8.011 0 00-.938-.054C2.06 4.875 0 6.111 0 7.688v5C0 14.264 2.059 15.5 4.688 15.5c2.129 0 3.885-.81 4.474-1.957.374.055.76.082 1.15.082 2.63 0 4.688-1.236 4.688-2.813v-7.5C15 1.736 12.941.5 10.312.5zm3.437 7.813c0 .737-1.47 1.562-3.438 1.562-.32 0-.633-.022-.937-.064V8.57c.306.035.62.054.938.054 1.37 0 2.587-.336 3.437-.882v.57zM1.25 9.617c.85.546 2.066.882 3.438.882 1.37 0 2.587-.336 3.437-.882v.57c0 .737-1.47 1.562-3.438 1.562-1.967 0-3.437-.825-3.437-1.563v-.569zm12.5-3.806c0 .738-1.47 1.563-3.438 1.563-.334 0-.662-.024-.978-.07-.12-.554-.5-1.052-1.066-1.452a7.508 7.508 0 002.044.272c1.372 0 2.588-.336 3.438-.882v.57zM10.312 1.75c1.968 0 3.438.825 3.438 1.563 0 .737-1.47 1.562-3.438 1.562-1.967 0-3.437-.825-3.437-1.563 0-.737 1.47-1.562 3.438-1.562zM4.689 6.125c1.967 0 3.437.825 3.437 1.563 0 .737-1.47 1.562-3.438 1.562-1.967 0-3.437-.825-3.437-1.563 0-.737 1.47-1.562 3.438-1.562zm0 8.125c-1.968 0-3.438-.825-3.438-1.563v-.569c.85.546 2.066.882 3.438.882 1.37 0 2.587-.336 3.437-.882v.57c0 .737-1.47 1.562-3.438 1.562zm5.625-1.875a6.86 6.86 0 01-.938-.064v-1.24c.306.035.62.054.938.054 1.37 0 2.587-.336 3.437-.882v.57c0 .737-1.47 1.562-3.438 1.562z"/></g><defs><clipPath id="ea"><path transform="translate(0 .5)" d="M0 0h15v15H0z"/></clipPath></defs></svg><svg viewBox="0 0 15 16" id="calculator" xmlns="http://www.w3.org/2000/svg"><g clip-path="url(#fa)"><path d="M11.563 15.5H3.437A3.441 3.441 0 010 12.062V3.938A3.441 3.441 0 013.438.5h8.124A3.441 3.441 0 0115 3.938v8.124a3.442 3.442 0 01-3.438 3.438zM3.437 2.375a1.562 1.562 0 00-1.562 1.563v8.124a1.563 1.563 0 001.563 1.563h8.124a1.563 1.563 0 001.563-1.563V3.938a1.563 1.563 0 00-1.563-1.563H3.438zm8.438 2.5a1.25 1.25 0 00-1.25-1.25h-6.25a1.25 1.25 0 000 2.5h6.25a1.25 1.25 0 001.25-1.25zM4.062 7.688a.937.937 0 100 1.874.937.937 0 000-1.874zm3.125 0a.937.937 0 100 1.874.937.937 0 000-1.874zM4.063 10.5a.938.938 0 100 1.875.938.938 0 000-1.875zm3.125 0a.938.938 0 100 1.875.938.938 0 000-1.875zm4.688.938a.938.938 0 00-.938-.938h-.624a.938.938 0 000 1.875h.624a.938.938 0 00.938-.938zm0-2.813a.938.938 0 00-.938-.938h-.624a.938.938 0 000 1.875h.624a.937.937 0 00.938-.937z"/></g><defs><clipPath id="fa"><path transform="translate(0 .5)" d="M0 0h15v15H0z"/></clipPath></defs></svg><svg viewBox="0 0 14 14" id="calendar" xmlns="http://www.w3.org/2000/svg"><g clip-path="url(#ga)"><path d="M0 11.082a2.92 2.92 0 002.917 2.917h8.166A2.92 2.92 0 0014 11.082v-5.25H0v5.25zm9.917-2.625a.875.875 0 110 1.75.875.875 0 010-1.75zM7 8.457a.875.875 0 110 1.75.875.875 0 010-1.75zm-2.917 0a.875.875 0 110 1.75.875.875 0 010-1.75zm7-7.29H10.5V.583a.583.583 0 00-1.167 0v.584H4.667V.583a.583.583 0 00-1.167 0v.584h-.583A2.92 2.92 0 000 4.083v.584h14v-.584a2.92 2.92 0 00-2.917-2.916z"/></g><defs><clipPath id="ga"><path d="M0 0h14v14H0z"/></clipPath></defs></svg><svg viewBox="0 0 21 20" id="check" xmlns="http://www.w3.org/2000/svg"><path d="M6.675 7l3.825 3.535L14.325 7 15.5 8.094l-5 4.62-5-4.62L6.675 7z"/></svg><svg viewBox="0 0 9 9" id="close" xmlns="http://www.w3.org/2000/svg"><path d="M7.031 1.969L1.97 7.03m5.061.001L1.97 1.97"/></svg><svg viewBox="0 0 15 16" id="dollar" xmlns="http://www.w3.org/2000/svg"><g clip-path="url(#ja)"><path d="M10 14.875c0 .345-.28.625-.625.625H3.75a3.129 3.129 0 01-3.125-3.125v-8.75A3.129 3.129 0 013.75.5h2.822a4.35 4.35 0 013.094 1.281l2.177 2.179c.17.17.327.355.468.552a.625.625 0 11-1.017.726c-.1-.14-.213-.274-.334-.394L8.782 2.666a3.132 3.132 0 00-.657-.503v2.712c0 .344.28.625.625.625h1.875a.625.625 0 110 1.25H8.75a1.877 1.877 0 01-1.875-1.875v-3.11a3.25 3.25 0 00-.303-.015H3.75a1.877 1.877 0 00-1.875 1.875v8.75c0 1.034.841 1.875 1.875 1.875h5.625c.346 0 .625.28.625.625zm3.553-4.208l-1.9-.317a.48.48 0 01-.403-.475c0-.344.28-.625.625-.625h1.418c.222 0 .43.12.541.313a.624.624 0 101.082-.626 1.88 1.88 0 00-1.624-.938h-.168v-.625a.625.625 0 10-1.25 0V8A1.877 1.877 0 0010 9.874c0 .85.61 1.57 1.447 1.708l1.9.317a.48.48 0 01.403.475c0 .345-.28.625-.625.625h-1.417a.63.63 0 01-.542-.312.623.623 0 10-1.081.626 1.88 1.88 0 001.623.936h.168v.625a.625.625 0 101.25 0v-.625A1.877 1.877 0 0015 12.374c0-.85-.609-1.568-1.447-1.707zm-8.866-.792h3.438a.625.625 0 100-1.25H4.687c-.86 0-1.562.701-1.562 1.563v1.25c0 .86.701 1.562 1.563 1.562h3.437a.625.625 0 100-1.25H4.687a.313.313 0 01-.312-.313v-1.25c0-.172.14-.312.313-.312zm-.937-2.5H5a.625.625 0 000-1.25H3.75a.625.625 0 000 1.25zm0-2.5H5a.625.625 0 000-1.25H3.75a.625.625 0 000 1.25z"/></g><defs><clipPath id="ja"><path transform="translate(0 .5)" d="M0 0h15v15H0z"/></clipPath></defs></svg><svg viewBox="0 0 14 14" id="door-open" xmlns="http://www.w3.org/2000/svg"><g clip-path="url(#ka)"><path d="M11.667 12.832V2.916c0-.965-.785-1.75-1.75-1.75h-.694a1.735 1.735 0 00-.53-.77A1.748 1.748 0 007.24.034l-3.5.7a1.755 1.755 0 00-1.407 1.715v10.383H0V14h14v-1.167h-2.333zM7.292 7.728a.875.875 0 110-1.75.875.875 0 010 1.75zm3.208 5.104H9.333v-10.5h.584c.321 0 .583.262.583.584v9.917z"/></g><defs><clipPath id="ka"><path d="M0 0h14v14H0z"/></clipPath></defs></svg><svg viewBox="0 0 21 20" id="filter" xmlns="http://www.w3.org/2000/svg"><path d="M12.063 13.438H3.624m13.751 0h-2.188M13.625 15a1.563 1.563 0 100-3.125 1.563 1.563 0 000 3.125zM7.063 6.563H3.624m13.751 0h-7.188M8.625 8.125a1.563 1.563 0 100-3.125 1.563 1.563 0 000 3.125z"/></svg><svg viewBox="0 0 12 12" id="fingerprint" xmlns="http://www.w3.org/2000/svg"><g clip-path="url(#ma)"><path d="M4.25 11.218a.75.75 0 01-.44-1.358c1.256-.91 1.432-2.59 1.439-4.114A.75.75 0 016 4.999h.003a.75.75 0 01.747.754c-.005 1.15-.016 3.843-2.06 5.322a.743.743 0 01-.44.143zm3.014.497c.406-.507.74-1.067.993-1.666a.75.75 0 10-1.381-.587c-.197.47-.458.91-.776 1.308a.75.75 0 001.166.945h-.002zm1.704-4.92C9 6.286 9 5.832 9 5.5a3 3 0 00-4-2.83.75.75 0 10.5 1.414 1.5 1.5 0 012 1.415c0 .33 0 .74-.029 1.204a.75.75 0 00.703.796h.046a.75.75 0 00.748-.703zM2.345 9.478c.326-.038.64-.143.923-.309C4.49 8.436 4.495 6.885 4.5 5.752A.75.75 0 003.752 5H3.75a.75.75 0 00-.75.747c-.005 1.193-.086 1.886-.5 2.136a.911.911 0 01-.343.108.75.75 0 00.188 1.487zm8.014 2.086A14.35 14.35 0 0011.5 5.5c0-.694-.13-1.382-.387-2.027a.75.75 0 00-1.394.554c.186.469.282.969.281 1.473a12.953 12.953 0 01-1.003 5.436.75.75 0 001.363.628zM2 6.25V5.5a4 4 0 015.894-3.523.75.75 0 00.713-1.32A5.5 5.5 0 00.5 5.5v.75a.75.75 0 101.5 0z"/></g><defs><clipPath id="ma"><path d="M0 0h12v12H0z"/></clipPath></defs></svg><svg viewBox="0 0 12 12" id="home" xmlns="http://www.w3.org/2000/svg"><g clip-path="url(#na)"><path d="M6 7.496a1.5 1.5 0 00-1.5 1.5v3h3v-3a1.5 1.5 0 00-1.5-1.5z"/><path d="M8.5 8.996v3h2a1.5 1.5 0 001.5-1.5v-4.56a1 1 0 00-.281-.696L7.469.646a2 2 0 00-2.937 0L.291 5.238A1 1 0 000 5.943v4.553a1.5 1.5 0 001.5 1.5h2v-3c.01-1.363 1.11-2.476 2.44-2.508 1.373-.034 2.55 1.099 2.56 2.508z"/><path d="M6 7.496a1.5 1.5 0 00-1.5 1.5v3h3v-3a1.5 1.5 0 00-1.5-1.5z"/></g><defs><clipPath id="na"><path d="M0 0h12v12H0z"/></clipPath></defs></svg><svg viewBox="0 0 12 12" id="key" xmlns="http://www.w3.org/2000/svg"><path d="M7.993 6.35V5a.5.5 0 01.5-.5h.5a.5.5 0 00.5-.5v-.5a.5.5 0 01.5-.5h1.343a.509.509 0 00.462-.3 2.26 2.26 0 00.188-1.188A1.745 1.745 0 0010.232 0a2.27 2.27 0 00-1.605.665L4.672 4.618a3.751 3.751 0 00-3.386 6.46 3.752 3.752 0 002.855.902 3.766 3.766 0 003.215-2.715 3.67 3.67 0 00.024-1.94L7.705 7a.992.992 0 00.288-.65zM2.746 10a.75.75 0 110-1.501.75.75 0 010 1.501z"/></svg><svg viewBox="0 0 8 10" id="location" xmlns="http://www.w3.org/2000/svg"><path d="M0 4.183C0 1.889 1.758 0 4 0c2.234 0 4 1.907 4 4.183 0 .224-.023.452-.067.683-.2 1.047-.823 2.13-1.734 3.214a15.001 15.001 0 01-1.742 1.75.702.702 0 01-.902.01 13.78 13.78 0 01-.553-.493c-.409-.384-.818-.81-1.2-1.266C.892 6.998.269 5.917.068 4.871A3.645 3.645 0 010 4.184zm4 1.65c.884 0 1.6-.746 1.6-1.666C5.6 3.247 4.884 2.5 4 2.5c-.884 0-1.6.746-1.6 1.667 0 .92.716 1.666 1.6 1.666z"/></svg><svg viewBox="0 0 19 18" id="location-two" xmlns="http://www.w3.org/2000/svg"><path d="M9.5 9a3 3 0 100-6 3 3 0 000 6zm0-4.5a1.5 1.5 0 110 3 1.5 1.5 0 010-3zm6.495 2.368l-.54-.18A6 6 0 009.5 0a5.995 5.995 0 00-5.935 6.819 3.784 3.784 0 00-1.911.975A3.71 3.71 0 00.5 10.5v3.056a3.76 3.76 0 002.7 3.6l2.153.675a3.759 3.759 0 002.133.029l4.334-1.282a2.24 2.24 0 011.18 0l1.79.6a3.001 3.001 0 003.71-2.912v-3.862a3.761 3.761 0 00-2.505-3.537zM6.319 2.82a4.49 4.49 0 016.362 0 4.528 4.528 0 01.009 6.375l-2.665 2.592a.744.744 0 01-1.042 0L6.32 9.208a4.53 4.53 0 010-6.386zM17 14.267a1.493 1.493 0 01-.573 1.179 1.476 1.476 0 01-1.22.296l-1.758-.591a3.767 3.767 0 00-2.038-.012L7.073 16.42a2.25 2.25 0 01-1.27-.022l-2.171-.675A2.26 2.26 0 012 13.556V10.5a2.223 2.223 0 01.69-1.622 2.268 2.268 0 011.252-.605c.302.75.752 1.43 1.324 2.002l2.675 2.59a2.237 2.237 0 003.13 0l2.672-2.598a5.97 5.97 0 001.36-2.115l.403.133A2.254 2.254 0 0117 10.404v3.862z"/></svg><svg viewBox="0 0 12 12" id="money-check-edit" xmlns="http://www.w3.org/2000/svg"><g clip-path="url(#ra)"><path d="M8.291 6.5H7v-1h2.31a2.25 2.25 0 011.421-.5c.46 0 .898.135 1.269.386V2.5c0-.827-.673-1.5-1.5-1.5h-9C.673 1 0 1.673 0 2.5V11h5V9.79L8.291 6.5zM7 3.5h3v1H7v-1zM4.178 6.62l-1.52-.253A1.38 1.38 0 011.5 5c0-.827.673-1.5 1.5-1.5V3h1v.5c.827 0 1.5.673 1.5 1.5h-1a.5.5 0 00-.5-.5H3a.5.5 0 00-.5.5c0 .189.135.349.322.38l1.52.253A1.38 1.38 0 015.5 7c0 .827-.673 1.5-1.5 1.5V9H3v-.5c-.827 0-1.5-.673-1.5-1.5h1a.5.5 0 00.5.5h1a.5.5 0 00.5-.5.384.384 0 00-.322-.38zm7.823.649c0 .339-.133.658-.372.897L7.795 12H6v-1.795l3.834-3.833a1.27 1.27 0 012.167.897z"/></g><defs><clipPath id="ra"><path d="M0 0h12v12H0z"/></clipPath></defs></svg><svg viewBox="0 0 12 12" id="new-buildings" xmlns="http://www.w3.org/2000/svg"><path d="M5.5 0h-4A1.5 1.5 0 000 1.5V12h7V1.5A1.5 1.5 0 005.5 0zM3 9.5H1.5v-1H3v1zm0-2H1.5v-1H3v1zm0-2H1.5v-1H3v1zm0-2H1.5v-1H3v1zm2.5 6H4v-1h1.5v1zm0-2H4v-1h1.5v1zm0-2H4v-1h1.5v1zm0-2H4v-1h1.5v1zm5-1H8V12h4V4a1.5 1.5 0 00-1.5-1.5zm0 7h-1v-1h1v1zm0-2h-1v-1h1v1zm0-2h-1v-1h1v1z"/></svg><svg viewBox="0 0 12 12" id="shield" xmlns="http://www.w3.org/2000/svg"><g clip-path="url(#ta)"><path d="M9.972 1.32L6 .004 2.028 1.32A1.5 1.5 0 001 2.744V6c0 3.762 4.6 5.84 4.797 5.926l.177.079.184-.061C6.355 11.877 11 10.288 11 5.999V2.744A1.5 1.5 0 009.972 1.32z"/></g><defs><clipPath id="ta"><path d="M0 0h12v12H0z"/></clipPath></defs></svg></svg>