<?xml version="1.0" encoding="utf-8"?><svg viewBox="0 0 19 19" xmlns="http://www.w3.org/2000/svg" xmlns:xlink="http://www.w3.org/1999/xlink"><style>:root>svg{display:none}:root>svg:target{display:block}</style><svg viewBox="0 0 19 19" id="ChatCircleDots" xmlns="http://www.w3.org/2000/svg"><path d="M3.37 13.137a7.117 7.117 0 112.493 2.494L3.4 16.33a.585.585 0 01-.727-.728l.698-2.464z"/><path d="M9.5 10.242a.742.742 0 100-1.484.742.742 0 000 1.484zm3.563 0a.742.742 0 100-1.484.742.742 0 000 1.484zm-7.125 0a.742.742 0 100-1.484.742.742 0 000 1.484z"/></svg><svg viewBox="0 0 14 14" id="add" xmlns="http://www.w3.org/2000/svg"><g clip-path="url(#ba)"><path d="M7 0a7 7 0 107 7 7.007 7.007 0 00-7-7zm2.333 7.583h-1.75v1.75a.583.583 0 11-1.166 0v-1.75h-1.75a.583.583 0 110-1.166h1.75v-1.75a.583.583 0 111.166 0v1.75h1.75a.583.583 0 010 1.166z"/></g><defs><clipPath id="ba"><path d="M0 0h14v14H0z"/></clipPath></defs></svg><svg viewBox="0 0 14 14" id="calendar" xmlns="http://www.w3.org/2000/svg"><g clip-path="url(#ca)"><path d="M0 11.082a2.92 2.92 0 002.917 2.917h8.166A2.92 2.92 0 0014 11.082v-5.25H0v5.25zm9.917-2.625a.875.875 0 110 1.75.875.875 0 010-1.75zM7 8.457a.875.875 0 110 1.75.875.875 0 010-1.75zm-2.917 0a.875.875 0 110 1.75.875.875 0 010-1.75zm7-7.29H10.5V.583a.583.583 0 00-1.167 0v.584H4.667V.583a.583.583 0 00-1.167 0v.584h-.583A2.92 2.92 0 000 4.083v.584h14v-.584a2.92 2.92 0 00-2.917-2.916z"/></g><defs><clipPath id="ca"><path d="M0 0h14v14H0z"/></clipPath></defs></svg><svg viewBox="0 0 15 12" id="check" xmlns="http://www.w3.org/2000/svg"><path d="M11.134 8.71L7.5 5.177 3.866 8.711 2.75 7.617l4.75-4.62 4.75 4.62-1.116 1.094z"/></svg><svg viewBox="0 0 9 9" id="close" xmlns="http://www.w3.org/2000/svg"><path d="M7.031 1.969L1.97 7.03m5.061.001L1.97 1.97"/></svg><svg viewBox="0 0 14 14" id="door-open" xmlns="http://www.w3.org/2000/svg"><g clip-path="url(#fa)"><path d="M11.667 12.832V2.916c0-.965-.785-1.75-1.75-1.75h-.694a1.735 1.735 0 00-.53-.77A1.748 1.748 0 007.24.034l-3.5.7a1.755 1.755 0 00-1.407 1.715v10.383H0V14h14v-1.167h-2.333zM7.292 7.728a.875.875 0 110-1.75.875.875 0 010 1.75zm3.208 5.104H9.333v-10.5h.584c.321 0 .583.262.583.584v9.917z"/></g><defs><clipPath id="fa"><path d="M0 0h14v14H0z"/></clipPath></defs></svg><svg viewBox="0 0 8 10" id="location" xmlns="http://www.w3.org/2000/svg"><path d="M0 4.183C0 1.889 1.758 0 4 0c2.234 0 4 1.907 4 4.183 0 .224-.023.452-.067.683-.2 1.047-.823 2.13-1.734 3.214a15.001 15.001 0 01-1.742 1.75.702.702 0 01-.902.01 13.78 13.78 0 01-.553-.493c-.409-.384-.818-.81-1.2-1.266C.892 6.998.269 5.917.068 4.871A3.645 3.645 0 010 4.184zm4 1.65c.884 0 1.6-.746 1.6-1.666C5.6 3.247 4.884 2.5 4 2.5c-.884 0-1.6.746-1.6 1.667 0 .92.716 1.666 1.6 1.666z"/></svg><svg viewBox="0 0 19 18" id="location-two" xmlns="http://www.w3.org/2000/svg"><path d="M9.5 9a3 3 0 100-6 3 3 0 000 6zm0-4.5a1.5 1.5 0 110 3 1.5 1.5 0 010-3zm6.495 2.368l-.54-.18A6 6 0 009.5 0a5.995 5.995 0 00-5.935 6.819 3.784 3.784 0 00-1.911.975A3.71 3.71 0 00.5 10.5v3.056a3.76 3.76 0 002.7 3.6l2.153.675a3.759 3.759 0 002.133.029l4.334-1.282a2.24 2.24 0 011.18 0l1.79.6a3.001 3.001 0 003.71-2.912v-3.862a3.761 3.761 0 00-2.505-3.537zM6.319 2.82a4.49 4.49 0 016.362 0 4.528 4.528 0 01.009 6.375l-2.665 2.592a.744.744 0 01-1.042 0L6.32 9.208a4.53 4.53 0 010-6.386zM17 14.267a1.493 1.493 0 01-.573 1.179 1.476 1.476 0 01-1.22.296l-1.758-.591a3.767 3.767 0 00-2.038-.012L7.073 16.42a2.25 2.25 0 01-1.27-.022l-2.171-.675A2.26 2.26 0 012 13.556V10.5a2.223 2.223 0 01.69-1.622 2.268 2.268 0 011.252-.605c.302.75.752 1.43 1.324 2.002l2.675 2.59a2.237 2.237 0 003.13 0l2.672-2.598a5.97 5.97 0 001.36-2.115l.403.133A2.254 2.254 0 0117 10.404v3.862z"/></svg></svg>