<svg width="238" height="32" viewBox="0 0 238 32" fill="none" xmlns="http://www.w3.org/2000/svg">
<path d="M54.92 27V10.68H68.648V27H65.72V13.416H57.848V27H54.92ZM72.1861 31.656V15.384H74.9221V16.848C75.2901 16.304 75.8021 15.888 76.4581 15.6C77.1141 15.296 77.8341 15.144 78.6181 15.144C79.3061 15.144 79.9541 15.272 80.5621 15.528C81.1861 15.784 81.7141 16.16 82.1461 16.656C82.5941 17.152 82.9461 17.776 83.2021 18.528C83.4741 19.264 83.6101 20.112 83.6101 21.072C83.6101 23.056 83.1061 24.584 82.0981 25.656C81.0901 26.712 79.8021 27.24 78.2341 27.24C77.5461 27.24 76.9221 27.136 76.3621 26.928C75.8021 26.704 75.3301 26.392 74.9461 25.992V31.656H72.1861ZM74.9461 22.128C74.9461 22.96 75.2341 23.632 75.8101 24.144C76.3861 24.64 77.0981 24.888 77.9461 24.888C78.8261 24.888 79.5301 24.56 80.0581 23.904C80.5861 23.232 80.8501 22.32 80.8501 21.168C80.8501 20.048 80.5861 19.16 80.0581 18.504C79.5461 17.832 78.8341 17.496 77.9221 17.496C77.1221 17.496 76.4261 17.768 75.8341 18.312C75.2421 18.856 74.9461 19.608 74.9461 20.568V22.128ZM91.1949 27.24C89.4829 27.24 88.0989 26.704 87.0429 25.632C85.9869 24.56 85.4589 23.072 85.4589 21.168C85.4589 19.264 85.9789 17.784 87.0189 16.728C88.0749 15.672 89.4669 15.144 91.1949 15.144C92.9389 15.144 94.3229 15.672 95.3469 16.728C96.3869 17.784 96.9069 19.264 96.9069 21.168C96.9069 23.056 96.3869 24.544 95.3469 25.632C94.3229 26.704 92.9389 27.24 91.1949 27.24ZM91.1949 24.912C92.1549 24.912 92.8909 24.592 93.4029 23.952C93.9149 23.296 94.1709 22.368 94.1709 21.168C94.1709 19.968 93.9149 19.056 93.4029 18.432C92.8909 17.792 92.1549 17.472 91.1949 17.472C90.2669 17.472 89.5309 17.792 88.9869 18.432C88.4589 19.056 88.1949 19.968 88.1949 21.168C88.1949 22.368 88.4669 23.296 89.0109 23.952C89.5549 24.592 90.2829 24.912 91.1949 24.912ZM97.6747 24.552H98.9227C99.2907 24.248 99.5947 23.832 99.8347 23.304C100.075 22.76 100.211 22.16 100.243 21.504C100.275 20.912 100.299 20.144 100.315 19.2C100.331 18.24 100.347 16.968 100.363 15.384H109.315V24.552H111.091V30.216H108.403V27H100.387V30.216H97.6747V24.552ZM102.811 21.696C102.763 22.32 102.651 22.864 102.475 23.328C102.299 23.792 102.091 24.2 101.851 24.552H106.555V17.832H102.883C102.883 18.616 102.875 19.36 102.859 20.064C102.859 20.752 102.843 21.296 102.811 21.696ZM119.999 27V25.68C119.631 26.176 119.143 26.56 118.535 26.832C117.943 27.104 117.263 27.24 116.495 27.24C115.327 27.24 114.367 26.936 113.615 26.328C112.863 25.72 112.487 24.872 112.487 23.784C112.487 22.584 112.879 21.712 113.663 21.168C114.463 20.608 115.535 20.296 116.879 20.232C117.423 20.2 117.943 20.192 118.439 20.208C118.935 20.208 119.415 20.216 119.879 20.232V19.32C119.879 18.648 119.679 18.16 119.279 17.856C118.879 17.552 118.359 17.4 117.719 17.4C117.079 17.4 116.575 17.56 116.207 17.88C115.839 18.2 115.575 18.632 115.415 19.176L112.871 18.744C113.079 17.704 113.599 16.848 114.431 16.176C115.263 15.488 116.375 15.144 117.767 15.144C119.143 15.144 120.287 15.464 121.199 16.104C122.111 16.728 122.567 17.808 122.567 19.344V27H119.999ZM119.879 22.08C119.495 22.064 119.071 22.064 118.607 22.08C118.143 22.08 117.687 22.088 117.239 22.104C116.615 22.12 116.119 22.256 115.751 22.512C115.399 22.768 115.223 23.136 115.223 23.616C115.223 24.096 115.391 24.472 115.727 24.744C116.063 25 116.511 25.128 117.071 25.128C117.887 25.128 118.559 24.936 119.087 24.552C119.615 24.152 119.879 23.632 119.879 22.992V22.08ZM125.694 27V15.384H129.774L133.062 24.096L136.326 15.384H140.262V27H137.646V18.12L134.238 27H131.55L128.142 18.168V27H125.694ZM143.219 27V23.832H146.291V27H143.219ZM156.201 27.24C155.017 27.24 153.929 27.064 152.937 26.712C151.961 26.344 151.121 25.808 150.417 25.104C149.713 24.4 149.161 23.528 148.761 22.488C148.377 21.432 148.185 20.216 148.185 18.84C148.185 17.496 148.377 16.296 148.761 15.24C149.161 14.184 149.713 13.304 150.417 12.6C151.121 11.896 151.961 11.36 152.937 10.992C153.929 10.624 155.017 10.44 156.201 10.44C157.401 10.44 158.497 10.624 159.489 10.992C160.481 11.36 161.321 11.896 162.009 12.6C162.713 13.304 163.257 14.184 163.641 15.24C164.041 16.296 164.241 17.496 164.241 18.84C164.241 20.216 164.041 21.432 163.641 22.488C163.257 23.528 162.713 24.4 162.009 25.104C161.321 25.808 160.481 26.344 159.489 26.712C158.497 27.064 157.401 27.24 156.201 27.24ZM156.201 24.624C157.817 24.624 159.065 24.104 159.945 23.064C160.825 22.008 161.265 20.6 161.265 18.84C161.265 17.064 160.825 15.656 159.945 14.616C159.065 13.576 157.817 13.056 156.201 13.056C154.601 13.056 153.353 13.576 152.457 14.616C151.577 15.656 151.137 17.064 151.137 18.84C151.137 20.6 151.577 22.008 152.457 23.064C153.353 24.104 154.601 24.624 156.201 24.624ZM167.038 27V15.384H169.798V19.824H174.838V15.384H177.598V27H174.838V22.272H169.798V27H167.038ZM181.851 22.368C181.867 21.92 181.883 21.392 181.899 20.784C181.915 20.16 181.923 19.528 181.923 18.888C181.939 18.232 181.947 17.6 181.947 16.992C181.963 16.368 181.971 15.832 181.971 15.384H190.947V27H188.187V17.832H184.491C184.491 18.232 184.483 18.664 184.467 19.128C184.467 19.592 184.459 20.048 184.443 20.496C184.427 20.944 184.411 21.376 184.395 21.792C184.395 22.208 184.395 22.568 184.395 22.872C184.347 24.392 184.059 25.464 183.531 26.088C183.003 26.696 182.091 27 180.795 27H179.547V24.552H180.243C180.819 24.552 181.227 24.392 181.467 24.072C181.707 23.752 181.835 23.184 181.851 22.368ZM201.163 27V25.68C200.795 26.176 200.307 26.56 199.699 26.832C199.107 27.104 198.427 27.24 197.659 27.24C196.491 27.24 195.531 26.936 194.779 26.328C194.027 25.72 193.651 24.872 193.651 23.784C193.651 22.584 194.043 21.712 194.827 21.168C195.627 20.608 196.699 20.296 198.043 20.232C198.587 20.2 199.107 20.192 199.603 20.208C200.099 20.208 200.579 20.216 201.043 20.232V19.32C201.043 18.648 200.843 18.16 200.443 17.856C200.043 17.552 199.523 17.4 198.883 17.4C198.243 17.4 197.739 17.56 197.371 17.88C197.003 18.2 196.739 18.632 196.579 19.176L194.035 18.744C194.243 17.704 194.763 16.848 195.595 16.176C196.427 15.488 197.539 15.144 198.931 15.144C200.307 15.144 201.451 15.464 202.363 16.104C203.275 16.728 203.731 17.808 203.731 19.344V27H201.163ZM201.043 22.08C200.659 22.064 200.235 22.064 199.771 22.08C199.307 22.08 198.851 22.088 198.403 22.104C197.779 22.12 197.283 22.256 196.915 22.512C196.563 22.768 196.387 23.136 196.387 23.616C196.387 24.096 196.555 24.472 196.891 24.744C197.227 25 197.675 25.128 198.235 25.128C199.051 25.128 199.723 24.936 200.251 24.552C200.779 24.152 201.043 23.632 201.043 22.992V22.08ZM209.666 27H206.858V15.384H209.522V23.376L214.514 15.384H217.418V27H214.73V18.96L209.666 27ZM212.162 14.424C210.77 14.424 209.786 14.104 209.21 13.464C208.634 12.808 208.338 11.976 208.322 10.968H210.506C210.538 11.512 210.682 11.928 210.938 12.216C211.21 12.504 211.618 12.648 212.162 12.648C212.706 12.648 213.098 12.504 213.338 12.216C213.578 11.928 213.714 11.512 213.746 10.968H215.954C215.938 11.976 215.642 12.808 215.066 13.464C214.506 14.104 213.538 14.424 212.162 14.424ZM220.639 27V15.384H223.399V19.824H228.439V15.384H231.199V27H228.439V22.272H223.399V27H220.639Z" fill="#006CEE"/>
<path d="M37 3C37 1.34315 35.6569 0 34 0H3C1.34315 0 0 1.34315 0 3V29C0 30.6569 1.34315 32 3 32H34C35.6569 32 37 30.6569 37 29V3Z" fill="#006CEE"/>
</svg>
