<svg width="15" height="16" viewBox="0 0 15 16" fill="none" xmlns="http://www.w3.org/2000/svg">
<g clip-path="url(#clip0_163_23427)">
<path d="M3.21273e-08 14.251H15V15.501H3.21273e-08V14.251ZM15 5.44408V6.75096H13.125V11.751H14.375V13.001H0.625V11.751H1.875V6.75096H3.21273e-08V5.44408C-6.23154e-05 5.10723 0.0906219 4.77659 0.26252 4.4869C0.434419 4.19721 0.681183 3.95918 0.976875 3.79783L6.60187 0.729708C6.87723 0.578995 7.18609 0.5 7.5 0.5C7.81391 0.5 8.12277 0.578995 8.39812 0.729708L14.0231 3.79783C14.3188 3.95918 14.5656 4.19721 14.7375 4.4869C14.9094 4.77659 15.0001 5.10723 15 5.44408ZM3.125 11.751H5V6.75096H3.125V11.751ZM6.25 6.75096V11.751H8.75V6.75096H6.25ZM11.875 6.75096H10V11.751H11.875V6.75096ZM13.75 5.44408C13.75 5.3318 13.7198 5.22158 13.6625 5.12502C13.6052 5.02846 13.5229 4.94912 13.4244 4.89533L7.79938 1.82721C7.70755 1.7771 7.60461 1.75084 7.5 1.75084C7.39539 1.75084 7.29245 1.7771 7.20062 1.82721L1.57562 4.89533C1.47706 4.94912 1.39481 5.02846 1.33751 5.12502C1.28021 5.22158 1.24998 5.3318 1.25 5.44408V5.50096H13.75V5.44408Z" fill="#24CA8E"/>
</g>
<defs>
<clipPath id="clip0_163_23427">
<rect width="15" height="15" fill="white" transform="translate(0 0.5)"/>
</clipPath>
</defs>
</svg>
