<svg width="12" height="12" viewBox="0 0 12 12" fill="none" xmlns="http://www.w3.org/2000/svg">
<g clip-path="url(#clip0_577_29243)">
<path d="M4.25 11.2178C4.09149 11.2179 3.93705 11.1677 3.80884 11.0745C3.68062 10.9813 3.58524 10.8499 3.53636 10.6991C3.48749 10.5483 3.48765 10.3859 3.53681 10.2352C3.58597 10.0845 3.68161 9.9533 3.81 9.86034C5.066 8.95035 5.2425 7.26984 5.249 5.74584C5.24993 5.54737 5.32949 5.35735 5.47026 5.21742C5.61103 5.0775 5.80152 4.99908 6 4.99934H6.003C6.10153 4.99974 6.19902 5.01954 6.2899 5.05763C6.38078 5.09571 6.46326 5.15133 6.53263 5.22131C6.602 5.29129 6.65691 5.37425 6.6942 5.46545C6.7315 5.55665 6.75046 5.65431 6.75 5.75284C6.745 6.90284 6.7335 9.59584 4.69 11.0748C4.56227 11.1681 4.40814 11.2182 4.25 11.2178ZM7.264 11.7148C7.67049 11.2084 8.00452 10.6479 8.2565 10.0493C8.33434 9.86621 8.33625 9.65966 8.26179 9.47512C8.18734 9.29059 8.04263 9.14319 7.8595 9.06534C7.67637 8.9875 7.46981 8.9856 7.28528 9.06005C7.10074 9.1345 6.95334 9.27921 6.8755 9.46235C6.67925 9.93237 6.41822 10.3726 6.1 10.7703C5.97475 10.9249 5.91603 11.1229 5.93675 11.3207C5.95748 11.5186 6.05595 11.7001 6.2105 11.8253C6.36506 11.9506 6.56303 12.0093 6.76089 11.9886C6.95874 11.9679 7.14025 11.8694 7.2655 11.7148H7.264ZM8.968 6.79584C9 6.28534 9 5.83084 9 5.49934C9.00009 5.01935 8.88501 4.54635 8.66442 4.12005C8.44383 3.69375 8.12417 3.32661 7.73228 3.04945C7.3404 2.77229 6.88773 2.5932 6.4123 2.52724C5.93686 2.46127 5.45254 2.51035 5 2.67034C4.90564 2.70198 4.81851 2.75208 4.74371 2.81773C4.66891 2.88338 4.60792 2.96326 4.56429 3.05272C4.52067 3.14217 4.49529 3.23942 4.48963 3.33878C4.48397 3.43815 4.49814 3.53764 4.53132 3.63147C4.5645 3.72531 4.61602 3.8116 4.68289 3.88532C4.74975 3.95903 4.83062 4.01871 4.92078 4.06086C5.01094 4.10301 5.10858 4.12679 5.20803 4.13083C5.30747 4.13486 5.40672 4.11906 5.5 4.08434C5.72631 4.00433 5.96852 3.9798 6.20627 4.01281C6.44403 4.04582 6.67039 4.1354 6.86635 4.27404C7.0623 4.41268 7.22212 4.59632 7.33238 4.80953C7.44264 5.02274 7.50013 5.25931 7.5 5.49934C7.5 5.82884 7.5 6.23884 7.471 6.70284C7.4647 6.8013 7.47788 6.90003 7.5098 6.99338C7.54171 7.08673 7.59173 7.17286 7.65699 7.24685C7.72224 7.32084 7.80146 7.38123 7.89009 7.42456C7.97872 7.46788 8.07503 7.4933 8.1735 7.49934C8.18883 7.49934 8.20433 7.49934 8.22 7.49934C8.41085 7.49933 8.59452 7.42656 8.73359 7.29585C8.87266 7.16514 8.95667 6.98633 8.9685 6.79584H8.968ZM2.3455 9.47734C2.67122 9.43924 2.9855 9.33403 3.2685 9.16834C4.489 8.43584 4.495 6.88484 4.5 5.75234C4.50039 5.65381 4.48137 5.55617 4.44401 5.46499C4.40665 5.37381 4.3517 5.29089 4.28228 5.22096C4.21286 5.15103 4.13034 5.09546 4.03944 5.05744C3.94854 5.01941 3.85103 4.99967 3.7525 4.99934H3.75C3.55161 4.99934 3.36129 5.07795 3.22073 5.21795C3.08016 5.35796 3.00079 5.54795 3 5.74634C2.9955 6.93884 2.914 7.63234 2.5 7.88184C2.39397 7.94026 2.27737 7.97698 2.157 7.98984C1.96797 8.0139 1.79517 8.109 1.67372 8.25585C1.55227 8.40269 1.49127 8.59025 1.50311 8.78044C1.51495 8.97063 1.59874 9.14919 1.73747 9.27983C1.87619 9.41048 2.05944 9.48342 2.25 9.48384C2.28194 9.48386 2.31385 9.48169 2.3455 9.47734ZM10.3595 11.5633C11.1749 9.64863 11.564 7.57946 11.5 5.49934C11.5007 4.80525 11.3694 4.11736 11.113 3.47234C11.0395 3.28749 10.8956 3.13939 10.713 3.06062C10.5303 2.98186 10.3239 2.97888 10.139 3.05234C9.95414 3.12581 9.80604 3.2697 9.72728 3.45236C9.64851 3.63502 9.64553 3.84149 9.719 4.02634C9.90542 4.49503 10.0008 4.99495 10 5.49934C10.0607 7.36241 9.71858 9.21662 8.997 10.9353C8.91372 11.116 8.90563 11.3224 8.9745 11.509C9.04337 11.6957 9.18357 11.8473 9.36425 11.9306C9.54493 12.0139 9.75129 12.022 9.93793 11.9531C10.1246 11.8842 10.2762 11.744 10.3595 11.5633ZM2 6.24934V5.49934C2.00008 4.80757 2.17956 4.12764 2.52092 3.52595C2.86229 2.92427 3.35386 2.4214 3.94763 2.06645C4.54141 1.71151 5.21708 1.51662 5.90868 1.50083C6.60027 1.48504 7.28414 1.64888 7.8935 1.97634C8.06815 2.06722 8.27153 2.08577 8.45975 2.028C8.64796 1.97023 8.80591 1.84077 8.89951 1.66756C8.9931 1.49435 9.01484 1.29128 8.96002 1.10219C8.9052 0.913094 8.77822 0.753138 8.6065 0.656845C7.76866 0.205934 6.82818 -0.019911 5.87694 0.00137708C4.92571 0.0226651 3.99627 0.290358 3.17944 0.778299C2.36262 1.26624 1.68634 1.95774 1.2167 2.78522C0.747056 3.61271 0.500113 4.54787 0.5 5.49934V6.24934C0.5 6.44826 0.579018 6.63902 0.71967 6.77967C0.860322 6.92033 1.05109 6.99934 1.25 6.99934C1.44891 6.99934 1.63968 6.92033 1.78033 6.77967C1.92098 6.63902 2 6.44826 2 6.24934Z" fill="#7A7FAA"/>
</g>
<defs>
<clipPath id="clip0_577_29243">
<rect width="12" height="12" fill="white"/>
</clipPath>
</defs>
</svg>
