<svg width="17" height="16" viewBox="0 0 17 16" fill="none" xmlns="http://www.w3.org/2000/svg">
<path d="M7.71875 9.75144V7.50144C7.71875 7.40199 7.67595 7.3066 7.59976 7.23628C7.52358 7.16595 7.42024 7.12644 7.3125 7.12644H5.6875C5.57976 7.12644 5.47642 7.16595 5.40024 7.23628C5.32405 7.3066 5.28125 7.40199 5.28125 7.50144V9.75144C5.28125 9.8509 5.23845 9.94628 5.16226 10.0166C5.08608 10.0869 4.98274 10.1264 4.875 10.1264H2.4375C2.32976 10.1264 2.22642 10.0869 2.15024 10.0166C2.07405 9.94628 2.03125 9.8509 2.03125 9.75144V5.41551C2.03216 5.36361 2.04431 5.3124 2.06698 5.26491C2.08966 5.21741 2.1224 5.17458 2.16328 5.13894L6.22578 1.73113C6.30067 1.66789 6.3985 1.63281 6.5 1.63281C6.6015 1.63281 6.69933 1.66789 6.77422 1.73113L10.8367 5.13894C10.8776 5.17458 10.9103 5.21741 10.933 5.26491C10.9557 5.3124 10.9678 5.36361 10.9688 5.41551V9.75144C10.9688 9.8509 10.9259 9.94628 10.8498 10.0166C10.7736 10.0869 10.6702 10.1264 10.5625 10.1264H8.125C8.01726 10.1264 7.91392 10.0869 7.83774 10.0166C7.76155 9.94628 7.71875 9.8509 7.71875 9.75144Z" fill="white" stroke="white" stroke-width="1.5" stroke-linecap="round" stroke-linejoin="round"/>
<path d="M9.40849 13.1992V14.1992H10.4085H11.6931H12.6931V13.1992V11.7802H14.3008H15.3008V10.7802V9.61819V8.61819H14.3008H12.6931V7.19922V6.19922H11.6931H10.4085H9.40849V7.19922V8.61819H7.80078H6.80078V9.61819V10.7802V11.7802H7.80078H9.40849V13.1992Z" fill="white" stroke="#2683F2" stroke-width="2"/>
</svg>
