<svg width="10" height="12" viewBox="0 0 10 12" fill="none" xmlns="http://www.w3.org/2000/svg">
<path d="M0 5.10096C0 2.57812 2.19763 0.5 4.99994 0.5C7.79229 0.5 10 2.59786 10 5.10096C10 5.34754 9.97159 5.59842 9.91634 5.85307C9.66655 7.00456 8.88787 8.19504 7.74938 9.38845C7.27137 9.88951 6.76069 10.3576 6.2499 10.781C6.0709 10.9293 5.90438 11.0617 5.75443 11.1766C5.66316 11.2465 5.59676 11.2957 5.57101 11.314C5.24875 11.5589 4.7582 11.5613 4.44354 11.3249C4.40608 11.298 4.33964 11.2487 4.24832 11.1788C4.09828 11.0638 3.93165 10.9313 3.75253 10.7829C3.24141 10.3593 2.7304 9.89093 2.25209 9.38963C1.11477 8.19765 0.336251 7.00869 0.0849327 5.85874C0.0288518 5.60214 0 5.34936 0 5.10096ZM5 6.91667C6.10457 6.91667 7 6.09585 7 5.08333C7 4.07081 6.10457 3.25 5 3.25C3.89543 3.25 3 4.07081 3 5.08333C3 6.09585 3.89543 6.91667 5 6.91667Z" fill="#006CEE"/>
</svg>
