<svg width="16" height="16" viewBox="0 0 16 16" fill="none" xmlns="http://www.w3.org/2000/svg">
<path d="M14.2315 3.01735L10.9565 14.6361C10.9019 14.8328 10.788 15.008 10.6303 15.1377C10.4727 15.2674 10.2788 15.3454 10.0753 15.3611H9.98777C9.79941 15.3607 9.61501 15.3071 9.45578 15.2065C9.29656 15.1058 9.16899 14.9623 9.08776 14.7923L6.85651 10.0798C6.83461 10.0325 6.82766 9.97966 6.83659 9.92829C6.84553 9.87692 6.86992 9.82949 6.90652 9.79235L10.1128 6.5861C10.163 6.54062 10.2034 6.48542 10.2316 6.42384C10.2598 6.36226 10.2752 6.29559 10.2769 6.22788C10.2786 6.16017 10.2664 6.09282 10.2413 6.02993C10.2162 5.96704 10.1785 5.90992 10.1306 5.86202C10.0827 5.81413 10.0256 5.77646 9.96268 5.75132C9.89979 5.72617 9.83244 5.71406 9.76473 5.71573C9.69702 5.71739 9.63035 5.7328 9.56878 5.76101C9.5072 5.78923 9.45199 5.82966 9.40652 5.87985L6.20026 9.09235C6.16312 9.12894 6.1157 9.15334 6.06433 9.16227C6.01296 9.1712 5.96008 9.16426 5.91277 9.14235L1.22527 6.9236C1.0418 6.83695 0.887771 6.6984 0.782238 6.5251C0.676706 6.35181 0.624303 6.15137 0.631515 5.9486C0.642578 5.73982 0.719205 5.53985 0.850493 5.37715C0.981781 5.21444 1.16104 5.09728 1.36277 5.04235L13.0065 1.7611C13.2102 1.70294 13.427 1.71094 13.6258 1.78395C13.8247 1.85696 13.9952 1.99121 14.1128 2.16735C14.1917 2.29252 14.2431 2.43303 14.2635 2.57958C14.284 2.72612 14.2731 2.87535 14.2315 3.01735Z" fill="white"/>
</svg>
